<svg xmlns="http://www.w3.org/2000/svg" width="300" height="450" viewBox="0 0 300 450"><defs><linearGradient id="sky" x1="0" y1="0" x2="0" y2="1"><stop offset="0" stop-color="#1a0a3d"/><stop offset="0.55" stop-color="#8e2de2"/><stop offset="1" stop-color="#1a0a3d"/></linearGradient><radialGradient id="glow"><stop offset="0" stop-color="rgba(255,255,255,.55)"/><stop offset="1" stop-color="rgba(255,255,255,0)"/></radialGradient><linearGradient id="sea" x1="0" y1="0" x2="0" y2="1"><stop offset="0" stop-color="#8e2de2"/><stop offset="1" stop-color="#1a0a3d"/></linearGradient><radialGradient id="planet"><stop offset="0" stop-color="#8e2de2"/><stop offset="1" stop-color="#1a0a3d"/></radialGradient><linearGradient id="track" x1="0" y1="0" x2="0" y2="1"><stop offset="0" stop-color="#8c2b23"/><stop offset="1" stop-color="#4a1410"/></linearGradient><linearGradient id="bw" x1="0" y1="0" x2="0" y2="1"><stop offset="0" stop-color="#d8d8d8"/><stop offset="1" stop-color="#2a2a2a"/></linearGradient><linearGradient id="vig" x1="0" y1="0" x2="0" y2="1"><stop offset="0" stop-color="rgba(0,0,0,.45)"/><stop offset="0.35" stop-color="rgba(0,0,0,0)"/><stop offset="0.72" stop-color="rgba(0,0,0,.55)"/><stop offset="1" stop-color="rgba(0,0,0,.92)"/></linearGradient><filter id="grain"><feTurbulence type="fractalNoise" baseFrequency="0.9" numOctaves="2" stitchTiles="stitch"/><feColorMatrix type="saturate" values="0"/><feComponentTransfer><feFuncA type="linear" slope="0.06"/></feComponentTransfer></filter></defs><g><rect width="300" height="450" fill="url(#sky)"/><circle cx="203.64000000000001" cy="56.519999999999996" r="16.5" fill="rgba(255,255,255,.9)"/><circle cx="203.64000000000001" cy="56.519999999999996" r="36" fill="url(#glow)"/><circle cx="282.3" cy="90.9" r="1.8908999999999998" fill="rgba(255,255,255,0.4295)"/><circle cx="5.3999999999999995" cy="136.8" r="1.3864999999999998" fill="rgba(255,255,255,0.7050000000000001)"/><circle cx="100.2" cy="42.84" r="1.7374999999999998" fill="rgba(255,255,255,0.5085)"/><circle cx="156.9" cy="68.94" r="1.887" fill="rgba(255,255,255,0.374)"/><circle cx="24.900000000000002" cy="94.68" r="1.4944" fill="rgba(255,255,255,0.3695)"/><circle cx="24" cy="166.14000000000001" r="0.6299" fill="rgba(255,255,255,0.345)"/><circle cx="117.60000000000001" cy="69.84" r="1.5503" fill="rgba(255,255,255,0.35150000000000003)"/><circle cx="275.40000000000003" cy="84.96" r="1.6296" fill="rgba(255,255,255,0.3665)"/><circle cx="66.9" cy="167.04000000000002" r="1.6816" fill="rgba(255,255,255,0.3295)"/><circle cx="144.9" cy="24.480000000000004" r="1.4814" fill="rgba(255,255,255,0.381)"/><circle cx="170.1" cy="149.58" r="1.3696" fill="rgba(255,255,255,0.6785)"/><circle cx="225.3" cy="5.4" r="1.2357" fill="rgba(255,255,255,0.367)"/><circle cx="61.199999999999996" cy="113.94000000000001" r="1.0095" fill="rgba(255,255,255,0.433)"/><circle cx="70.5" cy="21.42" r="1.3137" fill="rgba(255,255,255,0.2745)"/><circle cx="297.9" cy="25.38" r="1.4163999999999999" fill="rgba(255,255,255,0.5325)"/><circle cx="13.799999999999999" cy="147.78" r="0.8522000000000001" fill="rgba(255,255,255,0.4885)"/><circle cx="62.4" cy="111.42000000000002" r="1.7452999999999999" fill="rgba(255,255,255,0.2595)"/><circle cx="156.9" cy="47.88" r="1.6114000000000002" fill="rgba(255,255,255,0.727)"/><circle cx="151.8" cy="169.74" r="0.6936" fill="rgba(255,255,255,0.745)"/><circle cx="232.20000000000002" cy="140.76000000000002" r="0.6403" fill="rgba(255,255,255,0.731)"/><circle cx="78" cy="178.74" r="0.9393" fill="rgba(255,255,255,0.5485)"/><circle cx="204.3" cy="41.040000000000006" r="1.8622999999999998" fill="rgba(255,255,255,0.663)"/><circle cx="265.8" cy="91.44" r="0.8028" fill="rgba(255,255,255,0.5795)"/><circle cx="258.3" cy="171" r="1.8753000000000002" fill="rgba(255,255,255,0.65)"/><circle cx="192.3" cy="140.22" r="1.2981" fill="rgba(255,255,255,0.46799999999999997)"/><circle cx="17.1" cy="14.219999999999999" r="0.6351" fill="rgba(255,255,255,0.294)"/><rect x="-20.0" y="174.0" width="30.0" height="70.0" fill="rgba(255,255,255,.10)"/><rect x="11.5" y="135.4" width="20.8" height="108.6" fill="rgba(255,255,255,.10)"/><rect x="33.7" y="140.3" width="20.8" height="103.7" fill="rgba(255,255,255,.10)"/><rect x="56.0" y="157.2" width="23.6" height="86.8" fill="rgba(255,255,255,.10)"/><rect x="81.2" y="151.0" width="31.6" height="93.0" fill="rgba(255,255,255,.10)"/><rect x="114.3" y="185.5" width="35.2" height="58.5" fill="rgba(255,255,255,.10)"/><rect x="151.0" y="148.1" width="35.1" height="95.9" fill="rgba(255,255,255,.10)"/><rect x="187.6" y="148.4" width="28.8" height="95.6" fill="rgba(255,255,255,.10)"/><rect x="217.9" y="159.3" width="34.8" height="84.7" fill="rgba(255,255,255,.10)"/><rect x="254.2" y="153.1" width="23.2" height="90.9" fill="rgba(255,255,255,.10)"/><rect x="279.0" y="165.7" width="23.1" height="78.3" fill="rgba(255,255,255,.10)"/><rect x="303.6" y="172.0" width="30.2" height="72.0" fill="rgba(255,255,255,.10)"/><rect x="-20.0" y="163.9" width="29.3" height="125.1" fill="rgba(0,0,0,.35)"/><rect x="0.0" y="171.9" width="3" height="4" fill="rgba(255,214,120,0.9359999999999999)"/><rect x="0.0" y="191.9" width="3" height="4" fill="rgba(255,214,120,0.7735000000000001)"/><rect x="-8.0" y="201.9" width="3" height="4" fill="rgba(255,214,120,0.8935)"/><rect x="-16.0" y="211.9" width="3" height="4" fill="rgba(255,214,120,0.595)"/><rect x="0.0" y="211.9" width="3" height="4" fill="rgba(255,214,120,0.8745)"/><rect x="-8.0" y="221.9" width="3" height="4" fill="rgba(255,214,120,0.7985)"/><rect x="-16.0" y="231.9" width="3" height="4" fill="rgba(255,214,120,0.5165)"/><rect x="-8.0" y="231.9" width="3" height="4" fill="rgba(255,214,120,0.8805000000000001)"/><rect x="0.0" y="251.9" width="3" height="4" fill="rgba(255,214,120,0.7675000000000001)"/><rect x="-16.0" y="261.9" width="3" height="4" fill="rgba(255,214,120,0.847)"/><rect x="-8.0" y="261.9" width="3" height="4" fill="rgba(255,214,120,0.6345000000000001)"/><rect x="0.0" y="261.9" width="3" height="4" fill="rgba(255,214,120,0.977)"/><rect x="-16.0" y="271.9" width="3" height="4" fill="rgba(255,214,120,0.6565)"/><rect x="-8.0" y="271.9" width="3" height="4" fill="rgba(255,214,120,0.909)"/><rect x="10.8" y="202.5" width="22.8" height="86.5" fill="rgba(0,0,0,.35)"/><rect x="14.8" y="210.5" width="3" height="4" fill="rgba(255,214,120,0.666)"/><rect x="14.8" y="220.5" width="3" height="4" fill="rgba(255,214,120,0.846)"/><rect x="14.8" y="230.5" width="3" height="4" fill="rgba(255,214,120,0.892)"/><rect x="22.8" y="230.5" width="3" height="4" fill="rgba(255,214,120,0.775)"/><rect x="22.8" y="250.5" width="3" height="4" fill="rgba(255,214,120,0.6885)"/><rect x="22.8" y="260.5" width="3" height="4" fill="rgba(255,214,120,0.8015)"/><rect x="22.8" y="270.5" width="3" height="4" fill="rgba(255,214,120,0.983)"/><rect x="35.1" y="160.8" width="22.7" height="128.2" fill="rgba(0,0,0,.35)"/><rect x="39.1" y="188.8" width="3" height="4" fill="rgba(255,214,120,0.946)"/><rect x="47.1" y="198.8" width="3" height="4" fill="rgba(255,214,120,0.8035)"/><rect x="39.1" y="208.8" width="3" height="4" fill="rgba(255,214,120,0.572)"/><rect x="47.1" y="208.8" width="3" height="4" fill="rgba(255,214,120,0.8674999999999999)"/><rect x="47.1" y="218.8" width="3" height="4" fill="rgba(255,214,120,0.8240000000000001)"/><rect x="39.1" y="228.8" width="3" height="4" fill="rgba(255,214,120,0.746)"/><rect x="47.1" y="228.8" width="3" height="4" fill="rgba(255,214,120,0.985)"/><rect x="39.1" y="238.8" width="3" height="4" fill="rgba(255,214,120,0.9285)"/><rect x="47.1" y="238.8" width="3" height="4" fill="rgba(255,214,120,0.6995)"/><rect x="39.1" y="248.8" width="3" height="4" fill="rgba(255,214,120,0.8285)"/><rect x="47.1" y="248.8" width="3" height="4" fill="rgba(255,214,120,0.5105)"/><rect x="47.1" y="258.8" width="3" height="4" fill="rgba(255,214,120,0.7424999999999999)"/><rect x="39.1" y="268.8" width="3" height="4" fill="rgba(255,214,120,0.7155)"/><rect x="47.1" y="268.8" width="3" height="4" fill="rgba(255,214,120,0.61)"/><rect x="59.3" y="163.4" width="32.1" height="125.6" fill="rgba(0,0,0,.35)"/><rect x="63.3" y="181.4" width="3" height="4" fill="rgba(255,214,120,0.9319999999999999)"/><rect x="79.3" y="181.4" width="3" height="4" fill="rgba(255,214,120,0.8725)"/><rect x="63.3" y="191.4" width="3" height="4" fill="rgba(255,214,120,0.6425)"/><rect x="71.3" y="211.4" width="3" height="4" fill="rgba(255,214,120,0.8280000000000001)"/><rect x="71.3" y="231.4" width="3" height="4" fill="rgba(255,214,120,0.598)"/><rect x="71.3" y="241.4" width="3" height="4" fill="rgba(255,214,120,0.969)"/><rect x="63.3" y="251.4" width="3" height="4" fill="rgba(255,214,120,0.544)"/><rect x="71.3" y="251.4" width="3" height="4" fill="rgba(255,214,120,0.5225)"/><rect x="79.3" y="261.4" width="3" height="4" fill="rgba(255,214,120,0.7505)"/><rect x="71.3" y="271.4" width="3" height="4" fill="rgba(255,214,120,0.998)"/><rect x="92.9" y="206.1" width="15.5" height="82.9" fill="rgba(0,0,0,.35)"/><rect x="96.9" y="224.1" width="3" height="4" fill="rgba(255,214,120,0.7195)"/><rect x="96.9" y="234.1" width="3" height="4" fill="rgba(255,214,120,0.5745)"/><rect x="96.9" y="264.1" width="3" height="4" fill="rgba(255,214,120,0.923)"/><rect x="109.8" y="186.0" width="18.8" height="103.0" fill="rgba(0,0,0,.35)"/><rect x="113.8" y="194.0" width="3" height="4" fill="rgba(255,214,120,0.7805)"/><rect x="113.8" y="204.0" width="3" height="4" fill="rgba(255,214,120,0.8160000000000001)"/><rect x="113.8" y="214.0" width="3" height="4" fill="rgba(255,214,120,0.5885)"/><rect x="121.8" y="214.0" width="3" height="4" fill="rgba(255,214,120,0.655)"/><rect x="121.8" y="234.0" width="3" height="4" fill="rgba(255,214,120,0.7165)"/><rect x="113.8" y="244.0" width="3" height="4" fill="rgba(255,214,120,0.5995)"/><rect x="113.8" y="254.0" width="3" height="4" fill="rgba(255,214,120,0.506)"/><rect x="121.8" y="254.0" width="3" height="4" fill="rgba(255,214,120,0.999)"/><rect x="113.8" y="264.0" width="3" height="4" fill="rgba(255,214,120,0.6725)"/><rect x="130.1" y="192.9" width="33.2" height="96.1" fill="rgba(0,0,0,.35)"/><rect x="142.1" y="200.9" width="3" height="4" fill="rgba(255,214,120,0.759)"/><rect x="150.1" y="200.9" width="3" height="4" fill="rgba(255,214,120,0.9199999999999999)"/><rect x="150.1" y="220.9" width="3" height="4" fill="rgba(255,214,120,0.788)"/><rect x="158.1" y="230.9" width="3" height="4" fill="rgba(255,214,120,0.5955)"/><rect x="158.1" y="240.9" width="3" height="4" fill="rgba(255,214,120,0.7275)"/><rect x="150.1" y="250.9" width="3" height="4" fill="rgba(255,214,120,0.8875)"/><rect x="158.1" y="250.9" width="3" height="4" fill="rgba(255,214,120,0.764)"/><rect x="134.1" y="260.9" width="3" height="4" fill="rgba(255,214,120,0.5665)"/><rect x="142.1" y="260.9" width="3" height="4" fill="rgba(255,214,120,0.6555)"/><rect x="150.1" y="260.9" width="3" height="4" fill="rgba(255,214,120,0.8915)"/><rect x="158.1" y="260.9" width="3" height="4" fill="rgba(255,214,120,0.738)"/><rect x="142.1" y="270.9" width="3" height="4" fill="rgba(255,214,120,0.8425)"/><rect x="164.8" y="184.6" width="35.9" height="104.4" fill="rgba(0,0,0,.35)"/><rect x="176.8" y="192.6" width="3" height="4" fill="rgba(255,214,120,0.6735)"/><rect x="192.8" y="202.6" width="3" height="4" fill="rgba(255,214,120,0.671)"/><rect x="168.8" y="212.6" width="3" height="4" fill="rgba(255,214,120,0.5945)"/><rect x="184.8" y="212.6" width="3" height="4" fill="rgba(255,214,120,0.71)"/><rect x="192.8" y="222.6" width="3" height="4" fill="rgba(255,214,120,0.7255)"/><rect x="184.8" y="232.6" width="3" height="4" fill="rgba(255,214,120,0.5405)"/><rect x="184.8" y="242.6" width="3" height="4" fill="rgba(255,214,120,0.8315)"/><rect x="168.8" y="252.6" width="3" height="4" fill="rgba(255,214,120,0.6970000000000001)"/><rect x="192.8" y="252.6" width="3" height="4" fill="rgba(255,214,120,0.526)"/><rect x="176.8" y="262.6" width="3" height="4" fill="rgba(255,214,120,0.696)"/><rect x="168.8" y="272.6" width="3" height="4" fill="rgba(255,214,120,0.819)"/><rect x="202.1" y="188.1" width="15.5" height="100.9" fill="rgba(0,0,0,.35)"/><rect x="206.1" y="196.1" width="3" height="4" fill="rgba(255,214,120,0.538)"/><rect x="206.1" y="206.1" width="3" height="4" fill="rgba(255,214,120,0.6779999999999999)"/><rect x="206.1" y="226.1" width="3" height="4" fill="rgba(255,214,120,0.576)"/><rect x="206.1" y="246.1" width="3" height="4" fill="rgba(255,214,120,0.8260000000000001)"/><rect x="206.1" y="266.1" width="3" height="4" fill="rgba(255,214,120,0.9545)"/><rect x="219.1" y="144.3" width="20.9" height="144.7" fill="rgba(0,0,0,.35)"/><rect x="231.1" y="152.3" width="3" height="4" fill="rgba(255,214,120,0.694)"/><rect x="231.1" y="172.3" width="3" height="4" fill="rgba(255,214,120,0.532)"/><rect x="223.1" y="182.3" width="3" height="4" fill="rgba(255,214,120,0.657)"/><rect x="223.1" y="222.3" width="3" height="4" fill="rgba(255,214,120,0.8625)"/><rect x="231.1" y="242.3" width="3" height="4" fill="rgba(255,214,120,0.8925000000000001)"/><rect x="231.1" y="252.3" width="3" height="4" fill="rgba(255,214,120,0.8745)"/><rect x="231.1" y="262.3" width="3" height="4" fill="rgba(255,214,120,0.7625)"/><rect x="241.5" y="193.7" width="17.6" height="95.3" fill="rgba(0,0,0,.35)"/><rect x="245.5" y="201.7" width="3" height="4" fill="rgba(255,214,120,0.6805)"/><rect x="253.5" y="201.7" width="3" height="4" fill="rgba(255,214,120,0.8545)"/><rect x="245.5" y="211.7" width="3" height="4" fill="rgba(255,214,120,0.527)"/><rect x="245.5" y="221.7" width="3" height="4" fill="rgba(255,214,120,0.6955)"/><rect x="253.5" y="221.7" width="3" height="4" fill="rgba(255,214,120,0.5745)"/><rect x="253.5" y="241.7" width="3" height="4" fill="rgba(255,214,120,0.7005)"/><rect x="253.5" y="251.7" width="3" height="4" fill="rgba(255,214,120,0.551)"/><rect x="253.5" y="261.7" width="3" height="4" fill="rgba(255,214,120,0.5175)"/><rect x="260.6" y="207.6" width="25.6" height="81.4" fill="rgba(0,0,0,.35)"/><rect x="280.6" y="215.6" width="3" height="4" fill="rgba(255,214,120,0.565)"/><rect x="280.6" y="225.6" width="3" height="4" fill="rgba(255,214,120,0.5425)"/><rect x="264.6" y="235.6" width="3" height="4" fill="rgba(255,214,120,0.6095)"/><rect x="272.6" y="235.6" width="3" height="4" fill="rgba(255,214,120,0.6375)"/><rect x="280.6" y="245.6" width="3" height="4" fill="rgba(255,214,120,0.7655000000000001)"/><rect x="264.6" y="255.6" width="3" height="4" fill="rgba(255,214,120,0.7225)"/><rect x="280.6" y="255.6" width="3" height="4" fill="rgba(255,214,120,0.6505)"/><rect x="272.6" y="265.6" width="3" height="4" fill="rgba(255,214,120,0.652)"/><rect x="287.7" y="215.8" width="17.1" height="73.2" fill="rgba(0,0,0,.35)"/><rect x="299.7" y="223.8" width="3" height="4" fill="rgba(255,214,120,0.8315)"/><rect x="306.3" y="209.7" width="23.7" height="79.3" fill="rgba(0,0,0,.35)"/><rect x="310.3" y="217.7" width="3" height="4" fill="rgba(255,214,120,0.7265)"/><rect x="310.3" y="227.7" width="3" height="4" fill="rgba(255,214,120,0.565)"/><rect x="310.3" y="237.7" width="3" height="4" fill="rgba(255,214,120,0.8365)"/><rect x="318.3" y="237.7" width="3" height="4" fill="rgba(255,214,120,0.52)"/><rect x="310.3" y="247.7" width="3" height="4" fill="rgba(255,214,120,0.571)"/><rect x="310.3" y="257.7" width="3" height="4" fill="rgba(255,214,120,0.501)"/><rect x="318.3" y="267.7" width="3" height="4" fill="rgba(255,214,120,0.7030000000000001)"/><rect x="-20.0" y="210.2" width="21.4" height="132.8" fill="rgba(0,0,0,.72)"/><rect x="-16.0" y="218.2" width="3" height="4" fill="rgba(255,214,120,0.8405)"/><rect x="-16.0" y="248.2" width="3" height="4" fill="rgba(255,214,120,0.6575)"/><rect x="-16.0" y="258.1" width="3" height="4" fill="rgba(255,214,120,0.9085)"/><rect x="-8.0" y="258.1" width="3" height="4" fill="rgba(255,214,120,0.6815)"/><rect x="-8.0" y="278.1" width="3" height="4" fill="rgba(255,214,120,0.923)"/><rect x="-16.0" y="288.1" width="3" height="4" fill="rgba(255,214,120,0.7889999999999999)"/><rect x="-8.0" y="288.1" width="3" height="4" fill="rgba(255,214,120,0.642)"/><rect x="-16.0" y="298.1" width="3" height="4" fill="rgba(255,214,120,0.5035)"/><rect x="-8.0" y="298.1" width="3" height="4" fill="rgba(255,214,120,0.911)"/><rect x="-16.0" y="308.1" width="3" height="4" fill="rgba(255,214,120,0.921)"/><rect x="-8.0" y="318.1" width="3" height="4" fill="rgba(255,214,120,0.9205)"/><rect x="2.9" y="188.0" width="33.7" height="155.0" fill="rgba(0,0,0,.72)"/><rect x="6.9" y="206.0" width="3" height="4" fill="rgba(255,214,120,0.9884999999999999)"/><rect x="6.9" y="216.0" width="3" height="4" fill="rgba(255,214,120,0.9099999999999999)"/><rect x="14.9" y="216.0" width="3" height="4" fill="rgba(255,214,120,0.733)"/><rect x="22.9" y="216.0" width="3" height="4" fill="rgba(255,214,120,0.511)"/><rect x="22.9" y="226.0" width="3" height="4" fill="rgba(255,214,120,0.7795000000000001)"/><rect x="14.9" y="236.0" width="3" height="4" fill="rgba(255,214,120,0.61)"/><rect x="22.9" y="236.0" width="3" height="4" fill="rgba(255,214,120,0.944)"/><rect x="6.9" y="246.0" width="3" height="4" fill="rgba(255,214,120,0.8534999999999999)"/><rect x="6.9" y="256.0" width="3" height="4" fill="rgba(255,214,120,0.5405)"/><rect x="30.9" y="256.0" width="3" height="4" fill="rgba(255,214,120,0.6855)"/><rect x="6.9" y="266.0" width="3" height="4" fill="rgba(255,214,120,0.5895)"/><rect x="22.9" y="266.0" width="3" height="4" fill="rgba(255,214,120,0.767)"/><rect x="30.9" y="266.0" width="3" height="4" fill="rgba(255,214,120,0.7010000000000001)"/><rect x="22.9" y="276.0" width="3" height="4" fill="rgba(255,214,120,0.861)"/><rect x="14.9" y="286.0" width="3" height="4" fill="rgba(255,214,120,0.879)"/><rect x="22.9" y="286.0" width="3" height="4" fill="rgba(255,214,120,0.9735)"/><rect x="30.9" y="286.0" width="3" height="4" fill="rgba(255,214,120,0.567)"/><rect x="6.9" y="296.0" width="3" height="4" fill="rgba(255,214,120,0.7165)"/><rect x="30.9" y="296.0" width="3" height="4" fill="rgba(255,214,120,0.7065)"/><rect x="14.9" y="306.0" width="3" height="4" fill="rgba(255,214,120,0.736)"/><rect x="30.9" y="306.0" width="3" height="4" fill="rgba(255,214,120,0.544)"/><rect x="14.9" y="316.0" width="3" height="4" fill="rgba(255,214,120,0.976)"/><rect x="6.9" y="326.0" width="3" height="4" fill="rgba(255,214,120,0.6055)"/><rect x="22.9" y="326.0" width="3" height="4" fill="rgba(255,214,120,0.6815)"/><rect x="38.1" y="187.2" width="25.7" height="155.8" fill="rgba(0,0,0,.72)"/><rect x="58.1" y="195.2" width="3" height="4" fill="rgba(255,214,120,0.6185)"/><rect x="58.1" y="205.2" width="3" height="4" fill="rgba(255,214,120,0.6005)"/><rect x="50.1" y="215.2" width="3" height="4" fill="rgba(255,214,120,0.7705)"/><rect x="58.1" y="215.2" width="3" height="4" fill="rgba(255,214,120,0.8300000000000001)"/><rect x="42.1" y="225.2" width="3" height="4" fill="rgba(255,214,120,0.837)"/><rect x="58.1" y="225.2" width="3" height="4" fill="rgba(255,214,120,0.8614999999999999)"/><rect x="42.1" y="235.2" width="3" height="4" fill="rgba(255,214,120,0.9325)"/><rect x="50.1" y="235.2" width="3" height="4" fill="rgba(255,214,120,0.9079999999999999)"/><rect x="58.1" y="235.2" width="3" height="4" fill="rgba(255,214,120,0.8585)"/><rect x="42.1" y="245.2" width="3" height="4" fill="rgba(255,214,120,0.5875)"/><rect x="42.1" y="255.2" width="3" height="4" fill="rgba(255,214,120,0.6155)"/><rect x="58.1" y="255.2" width="3" height="4" fill="rgba(255,214,120,0.8685)"/><rect x="42.1" y="275.2" width="3" height="4" fill="rgba(255,214,120,0.659)"/><rect x="50.1" y="285.2" width="3" height="4" fill="rgba(255,214,120,0.6105)"/><rect x="58.1" y="295.2" width="3" height="4" fill="rgba(255,214,120,0.8965000000000001)"/><rect x="42.1" y="305.2" width="3" height="4" fill="rgba(255,214,120,0.6234999999999999)"/><rect x="50.1" y="305.2" width="3" height="4" fill="rgba(255,214,120,0.6739999999999999)"/><rect x="50.1" y="315.2" width="3" height="4" fill="rgba(255,214,120,0.6765)"/><rect x="58.1" y="315.2" width="3" height="4" fill="rgba(255,214,120,0.738)"/><rect x="65.3" y="176.9" width="16.4" height="166.1" fill="rgba(0,0,0,.72)"/><rect x="69.3" y="194.9" width="3" height="4" fill="rgba(255,214,120,0.6325000000000001)"/><rect x="69.3" y="204.9" width="3" height="4" fill="rgba(255,214,120,0.675)"/><rect x="69.3" y="234.9" width="3" height="4" fill="rgba(255,214,120,0.532)"/><rect x="69.3" y="264.9" width="3" height="4" fill="rgba(255,214,120,0.9045000000000001)"/><rect x="69.3" y="274.9" width="3" height="4" fill="rgba(255,214,120,0.8865000000000001)"/><rect x="69.3" y="284.9" width="3" height="4" fill="rgba(255,214,120,0.6165)"/><rect x="69.3" y="294.9" width="3" height="4" fill="rgba(255,214,120,0.55)"/><rect x="69.3" y="304.9" width="3" height="4" fill="rgba(255,214,120,0.835)"/><rect x="69.3" y="314.9" width="3" height="4" fill="rgba(255,214,120,0.6970000000000001)"/><rect x="69.3" y="324.9" width="3" height="4" fill="rgba(255,214,120,0.7949999999999999)"/><rect x="83.2" y="177.5" width="26.8" height="165.5" fill="rgba(0,0,0,.72)"/><rect x="95.2" y="195.5" width="3" height="4" fill="rgba(255,214,120,0.5485)"/><rect x="103.2" y="195.5" width="3" height="4" fill="rgba(255,214,120,0.7295)"/><rect x="95.2" y="205.5" width="3" height="4" fill="rgba(255,214,120,0.8945000000000001)"/><rect x="103.2" y="205.5" width="3" height="4" fill="rgba(255,214,120,0.903)"/><rect x="103.2" y="225.5" width="3" height="4" fill="rgba(255,214,120,0.9585)"/><rect x="95.2" y="235.5" width="3" height="4" fill="rgba(255,214,120,0.74)"/><rect x="95.2" y="245.5" width="3" height="4" fill="rgba(255,214,120,0.662)"/><rect x="103.2" y="255.5" width="3" height="4" fill="rgba(255,214,120,0.7455)"/><rect x="87.2" y="265.5" width="3" height="4" fill="rgba(255,214,120,0.9675)"/><rect x="103.2" y="265.5" width="3" height="4" fill="rgba(255,214,120,0.563)"/><rect x="103.2" y="275.5" width="3" height="4" fill="rgba(255,214,120,0.6155)"/><rect x="87.2" y="295.5" width="3" height="4" fill="rgba(255,214,120,0.933)"/><rect x="95.2" y="295.5" width="3" height="4" fill="rgba(255,214,120,0.779)"/><rect x="95.2" y="305.5" width="3" height="4" fill="rgba(255,214,120,0.999)"/><rect x="87.2" y="315.5" width="3" height="4" fill="rgba(255,214,120,0.5905)"/><rect x="103.2" y="315.5" width="3" height="4" fill="rgba(255,214,120,0.8365)"/><rect x="103.2" y="325.5" width="3" height="4" fill="rgba(255,214,120,0.9265)"/><rect x="111.6" y="171.1" width="31.5" height="171.9" fill="rgba(0,0,0,.72)"/><rect x="115.6" y="179.1" width="3" height="4" fill="rgba(255,214,120,0.994)"/><rect x="123.6" y="189.1" width="3" height="4" fill="rgba(255,214,120,0.517)"/><rect x="131.6" y="189.1" width="3" height="4" fill="rgba(255,214,120,0.858)"/><rect x="123.6" y="209.1" width="3" height="4" fill="rgba(255,214,120,0.929)"/><rect x="131.6" y="239.1" width="3" height="4" fill="rgba(255,214,120,0.8694999999999999)"/><rect x="131.6" y="249.1" width="3" height="4" fill="rgba(255,214,120,0.817)"/><rect x="131.6" y="259.1" width="3" height="4" fill="rgba(255,214,120,0.671)"/><rect x="115.6" y="269.1" width="3" height="4" fill="rgba(255,214,120,0.9099999999999999)"/><rect x="123.6" y="269.1" width="3" height="4" fill="rgba(255,214,120,0.8815)"/><rect x="131.6" y="279.1" width="3" height="4" fill="rgba(255,214,120,0.6785)"/><rect x="115.6" y="289.1" width="3" height="4" fill="rgba(255,214,120,0.524)"/><rect x="123.6" y="299.1" width="3" height="4" fill="rgba(255,214,120,0.7165)"/><rect x="131.6" y="309.1" width="3" height="4" fill="rgba(255,214,120,0.905)"/><rect x="115.6" y="319.1" width="3" height="4" fill="rgba(255,214,120,0.725)"/><rect x="144.6" y="240.9" width="34.4" height="102.1" fill="rgba(0,0,0,.72)"/><rect x="156.6" y="258.9" width="3" height="4" fill="rgba(255,214,120,0.5915)"/><rect x="156.6" y="278.9" width="3" height="4" fill="rgba(255,214,120,0.747)"/><rect x="172.6" y="278.9" width="3" height="4" fill="rgba(255,214,120,0.9259999999999999)"/><rect x="148.6" y="288.9" width="3" height="4" fill="rgba(255,214,120,0.779)"/><rect x="164.6" y="298.9" width="3" height="4" fill="rgba(255,214,120,0.8035)"/><rect x="164.6" y="308.9" width="3" height="4" fill="rgba(255,214,120,0.5105)"/><rect x="164.6" y="318.9" width="3" height="4" fill="rgba(255,214,120,0.7875)"/><rect x="172.6" y="318.9" width="3" height="4" fill="rgba(255,214,120,0.646)"/><rect x="180.5" y="162.0" width="16.8" height="181.0" fill="rgba(0,0,0,.72)"/><rect x="184.5" y="180.0" width="3" height="4" fill="rgba(255,214,120,0.9610000000000001)"/><rect x="184.5" y="200.0" width="3" height="4" fill="rgba(255,214,120,0.736)"/><rect x="184.5" y="210.0" width="3" height="4" fill="rgba(255,214,120,0.764)"/><rect x="184.5" y="220.0" width="3" height="4" fill="rgba(255,214,120,0.837)"/><rect x="184.5" y="230.0" width="3" height="4" fill="rgba(255,214,120,0.706)"/><rect x="184.5" y="270.0" width="3" height="4" fill="rgba(255,214,120,0.544)"/><rect x="184.5" y="310.0" width="3" height="4" fill="rgba(255,214,120,0.9924999999999999)"/><rect x="198.9" y="186.2" width="35.1" height="156.8" fill="rgba(0,0,0,.72)"/><rect x="210.9" y="204.2" width="3" height="4" fill="rgba(255,214,120,0.8260000000000001)"/><rect x="202.9" y="214.2" width="3" height="4" fill="rgba(255,214,120,0.986)"/><rect x="218.9" y="214.2" width="3" height="4" fill="rgba(255,214,120,0.861)"/><rect x="226.9" y="214.2" width="3" height="4" fill="rgba(255,214,120,0.6325000000000001)"/><rect x="210.9" y="224.2" width="3" height="4" fill="rgba(255,214,120,0.9550000000000001)"/><rect x="226.9" y="244.2" width="3" height="4" fill="rgba(255,214,120,0.885)"/><rect x="218.9" y="254.2" width="3" height="4" fill="rgba(255,214,120,0.854)"/><rect x="226.9" y="254.2" width="3" height="4" fill="rgba(255,214,120,0.591)"/><rect x="218.9" y="264.2" width="3" height="4" fill="rgba(255,214,120,0.6405000000000001)"/><rect x="202.9" y="274.2" width="3" height="4" fill="rgba(255,214,120,0.626)"/><rect x="218.9" y="274.2" width="3" height="4" fill="rgba(255,214,120,0.721)"/><rect x="202.9" y="284.2" width="3" height="4" fill="rgba(255,214,120,0.975)"/><rect x="202.9" y="294.2" width="3" height="4" fill="rgba(255,214,120,0.704)"/><rect x="202.9" y="304.2" width="3" height="4" fill="rgba(255,214,120,0.7835)"/><rect x="210.9" y="304.2" width="3" height="4" fill="rgba(255,214,120,0.9625)"/><rect x="218.9" y="304.2" width="3" height="4" fill="rgba(255,214,120,0.7805)"/><rect x="226.9" y="304.2" width="3" height="4" fill="rgba(255,214,120,0.643)"/><rect x="202.9" y="314.2" width="3" height="4" fill="rgba(255,214,120,0.6990000000000001)"/><rect x="218.9" y="314.2" width="3" height="4" fill="rgba(255,214,120,0.734)"/><rect x="226.9" y="314.2" width="3" height="4" fill="rgba(255,214,120,0.8614999999999999)"/><rect x="226.9" y="324.2" width="3" height="4" fill="rgba(255,214,120,0.9319999999999999)"/><rect x="235.5" y="238.4" width="34.8" height="104.6" fill="rgba(0,0,0,.72)"/><rect x="239.5" y="246.4" width="3" height="4" fill="rgba(255,214,120,0.5775)"/><rect x="247.5" y="246.4" width="3" height="4" fill="rgba(255,214,120,0.735)"/><rect x="263.5" y="246.4" width="3" height="4" fill="rgba(255,214,120,0.6759999999999999)"/><rect x="247.5" y="256.4" width="3" height="4" fill="rgba(255,214,120,0.645)"/><rect x="255.5" y="256.4" width="3" height="4" fill="rgba(255,214,120,0.8734999999999999)"/><rect x="247.5" y="266.4" width="3" height="4" fill="rgba(255,214,120,0.5555)"/><rect x="255.5" y="266.4" width="3" height="4" fill="rgba(255,214,120,0.7725)"/><rect x="239.5" y="286.4" width="3" height="4" fill="rgba(255,214,120,0.7805)"/><rect x="239.5" y="296.4" width="3" height="4" fill="rgba(255,214,120,0.5295)"/><rect x="247.5" y="296.4" width="3" height="4" fill="rgba(255,214,120,0.6295)"/><rect x="247.5" y="306.4" width="3" height="4" fill="rgba(255,214,120,0.994)"/><rect x="263.5" y="306.4" width="3" height="4" fill="rgba(255,214,120,0.8335)"/><rect x="255.5" y="316.4" width="3" height="4" fill="rgba(255,214,120,0.9455)"/><rect x="263.5" y="316.4" width="3" height="4" fill="rgba(255,214,120,0.5305)"/><rect x="239.5" y="326.4" width="3" height="4" fill="rgba(255,214,120,0.606)"/><rect x="271.7" y="233.2" width="20.8" height="109.8" fill="rgba(0,0,0,.72)"/><rect x="275.7" y="271.2" width="3" height="4" fill="rgba(255,214,120,0.6315)"/><rect x="283.7" y="271.2" width="3" height="4" fill="rgba(255,214,120,0.8825000000000001)"/><rect x="283.7" y="281.2" width="3" height="4" fill="rgba(255,214,120,0.7929999999999999)"/><rect x="275.7" y="321.2" width="3" height="4" fill="rgba(255,214,120,0.7969999999999999)"/><rect x="283.7" y="321.2" width="3" height="4" fill="rgba(255,214,120,0.8805000000000001)"/><rect x="294.0" y="164.7" width="25.8" height="178.3" fill="rgba(0,0,0,.72)"/><rect x="298.0" y="182.7" width="3" height="4" fill="rgba(255,214,120,0.837)"/><rect x="306.0" y="212.7" width="3" height="4" fill="rgba(255,214,120,0.9159999999999999)"/><rect x="314.0" y="212.7" width="3" height="4" fill="rgba(255,214,120,0.9319999999999999)"/><rect x="314.0" y="232.7" width="3" height="4" fill="rgba(255,214,120,0.8360000000000001)"/><rect x="306.0" y="242.7" width="3" height="4" fill="rgba(255,214,120,0.8654999999999999)"/><rect x="298.0" y="252.7" width="3" height="4" fill="rgba(255,214,120,0.8205)"/><rect x="314.0" y="262.7" width="3" height="4" fill="rgba(255,214,120,0.643)"/><rect x="314.0" y="282.7" width="3" height="4" fill="rgba(255,214,120,0.876)"/><rect x="298.0" y="292.7" width="3" height="4" fill="rgba(255,214,120,0.5815)"/><rect x="306.0" y="292.7" width="3" height="4" fill="rgba(255,214,120,0.537)"/><rect x="314.0" y="292.7" width="3" height="4" fill="rgba(255,214,120,0.901)"/><rect x="298.0" y="302.7" width="3" height="4" fill="rgba(255,214,120,0.511)"/><rect x="306.0" y="312.7" width="3" height="4" fill="rgba(255,214,120,0.735)"/><rect x="306.0" y="322.7" width="3" height="4" fill="rgba(255,214,120,0.626)"/><rect x="314.0" y="322.7" width="3" height="4" fill="rgba(255,214,120,0.902)"/><ellipse cx="17.7" cy="324" rx="120" ry="22.5" fill="rgba(255,255,255,.06)"/><ellipse cx="18" cy="346.5" rx="120" ry="22.5" fill="rgba(255,255,255,.06)"/><ellipse cx="163.8" cy="369" rx="120" ry="22.5" fill="rgba(255,255,255,.06)"/><ellipse cx="12" cy="391.5" rx="120" ry="22.5" fill="rgba(255,255,255,.06)"/><g fill="rgba(0,0,0,.92)" transform="translate(90 279) scale(1)"><ellipse cx="0" cy="-70" rx="13" ry="14"/><path d="M-22 -80 h44 l-4 -8 h-36z"/><path d="M-11 -86 h22 l-3 -12 h-16z"/><path d="M-20 -56 q20 -10 40 0 l10 60 h-16 l-4 -30 -10 30 h-10 l-6 -26 -6 26 h-10 l-4 -30 -4 30 h-16z"/></g><ellipse cx="100" cy="219" rx="60" ry="90" fill="url(#glow)" opacity=".25"/></g><rect width="300" height="450" fill="url(#vig)"/><text x="150" y="258" text-anchor="middle" font-family="Poppins, Arial, sans-serif" font-weight="700" font-size="29" fill="#fff" style="paint-order:stroke" stroke="rgba(0,0,0,.55)" stroke-width="7">Agent 327</text><rect x="104" y="342" width="92" height="26" rx="13" fill="rgba(0,0,0,.65)"/><text x="150" y="360" text-anchor="middle" font-family="Poppins, Arial, sans-serif" font-weight="600" font-size="13" fill="#fff">2017 • 1080p</text><text x="150" y="404" text-anchor="middle" font-family="Poppins, Arial, sans-serif" font-weight="700" font-size="12" letter-spacing="3" fill="rgba(255,255,255,.8)">MOVIEBAZAR</text><rect x="7" y="14" width="9" height="13" rx="3" fill="rgba(0,0,0,.5)"/><rect x="7" y="40" width="9" height="13" rx="3" fill="rgba(0,0,0,.5)"/><rect x="7" y="66" width="9" height="13" rx="3" fill="rgba(0,0,0,.5)"/><rect x="7" y="92" width="9" height="13" rx="3" fill="rgba(0,0,0,.5)"/><rect x="7" y="118" width="9" height="13" rx="3" fill="rgba(0,0,0,.5)"/><rect x="7" y="144" width="9" height="13" rx="3" fill="rgba(0,0,0,.5)"/><rect x="7" y="170" width="9" height="13" rx="3" fill="rgba(0,0,0,.5)"/><rect x="7" y="196" width="9" height="13" rx="3" fill="rgba(0,0,0,.5)"/><rect x="7" y="222" width="9" height="13" rx="3" fill="rgba(0,0,0,.5)"/><rect x="7" y="248" width="9" height="13" rx="3" fill="rgba(0,0,0,.5)"/><rect x="7" y="274" width="9" height="13" rx="3" fill="rgba(0,0,0,.5)"/><rect x="7" y="300" width="9" height="13" rx="3" fill="rgba(0,0,0,.5)"/><rect x="7" y="326" width="9" height="13" rx="3" fill="rgba(0,0,0,.5)"/><rect x="7" y="352" width="9" height="13" rx="3" fill="rgba(0,0,0,.5)"/><rect x="7" y="378" width="9" height="13" rx="3" fill="rgba(0,0,0,.5)"/><rect x="7" y="404" width="9" height="13" rx="3" fill="rgba(0,0,0,.5)"/><rect x="284" y="14" width="9" height="13" rx="3" fill="rgba(0,0,0,.5)"/><rect x="284" y="40" width="9" height="13" rx="3" fill="rgba(0,0,0,.5)"/><rect x="284" y="66" width="9" height="13" rx="3" fill="rgba(0,0,0,.5)"/><rect x="284" y="92" width="9" height="13" rx="3" fill="rgba(0,0,0,.5)"/><rect x="284" y="118" width="9" height="13" rx="3" fill="rgba(0,0,0,.5)"/><rect x="284" y="144" width="9" height="13" rx="3" fill="rgba(0,0,0,.5)"/><rect x="284" y="170" width="9" height="13" rx="3" fill="rgba(0,0,0,.5)"/><rect x="284" y="196" width="9" height="13" rx="3" fill="rgba(0,0,0,.5)"/><rect x="284" y="222" width="9" height="13" rx="3" fill="rgba(0,0,0,.5)"/><rect x="284" y="248" width="9" height="13" rx="3" fill="rgba(0,0,0,.5)"/><rect x="284" y="274" width="9" height="13" rx="3" fill="rgba(0,0,0,.5)"/><rect x="284" y="300" width="9" height="13" rx="3" fill="rgba(0,0,0,.5)"/><rect x="284" y="326" width="9" height="13" rx="3" fill="rgba(0,0,0,.5)"/><rect x="284" y="352" width="9" height="13" rx="3" fill="rgba(0,0,0,.5)"/><rect x="284" y="378" width="9" height="13" rx="3" fill="rgba(0,0,0,.5)"/><rect x="284" y="404" width="9" height="13" rx="3" fill="rgba(0,0,0,.5)"/><rect width="300" height="450" filter="url(#grain)" opacity=".5"/></svg>