<svg xmlns="http://www.w3.org/2000/svg" width="300" height="450" viewBox="0 0 300 450"><defs><linearGradient id="sky" x1="0" y1="0" x2="0" y2="1"><stop offset="0" stop-color="#2b0a06"/><stop offset="0.55" stop-color="#8e0e00"/><stop offset="1" stop-color="#2b0a06"/></linearGradient><radialGradient id="glow"><stop offset="0" stop-color="rgba(255,255,255,.55)"/><stop offset="1" stop-color="rgba(255,255,255,0)"/></radialGradient><linearGradient id="sea" x1="0" y1="0" x2="0" y2="1"><stop offset="0" stop-color="#8e0e00"/><stop offset="1" stop-color="#2b0a06"/></linearGradient><radialGradient id="planet"><stop offset="0" stop-color="#8e0e00"/><stop offset="1" stop-color="#2b0a06"/></radialGradient><linearGradient id="track" x1="0" y1="0" x2="0" y2="1"><stop offset="0" stop-color="#8c2b23"/><stop offset="1" stop-color="#4a1410"/></linearGradient><linearGradient id="bw" x1="0" y1="0" x2="0" y2="1"><stop offset="0" stop-color="#d8d8d8"/><stop offset="1" stop-color="#2a2a2a"/></linearGradient><linearGradient id="vig" x1="0" y1="0" x2="0" y2="1"><stop offset="0" stop-color="rgba(0,0,0,.45)"/><stop offset="0.35" stop-color="rgba(0,0,0,0)"/><stop offset="0.72" stop-color="rgba(0,0,0,.55)"/><stop offset="1" stop-color="rgba(0,0,0,.92)"/></linearGradient><filter id="grain"><feTurbulence type="fractalNoise" baseFrequency="0.9" numOctaves="2" stitchTiles="stitch"/><feColorMatrix type="saturate" values="0"/><feComponentTransfer><feFuncA type="linear" slope="0.06"/></feComponentTransfer></filter></defs><g><rect width="300" height="450" fill="url(#sky)"/><polygon points="65,0 85,0 165,450 -15,450" fill="#ff6b6b" opacity=".14"/><circle cx="75" cy="6" r="7" fill="#ff6b6b"/><polygon points="140,0 160,0 240,450 60,450" fill="#ffd93d" opacity=".14"/><circle cx="150" cy="6" r="7" fill="#ffd93d"/><polygon points="215,0 235,0 315,450 135,450" fill="#6bcBff" opacity=".14"/><circle cx="225" cy="6" r="7" fill="#6bcBff"/><g fill="rgba(0,0,0,.88)"><rect x="148" y="311" width="4" height="40"/><rect x="136" y="351" width="28" height="4" rx="2"/><ellipse cx="150" cy="305" rx="7" ry="10"/></g><g fill="rgba(0,0,0,.85)" transform="translate(78 333) rotate(-18)"><ellipse cx="0" cy="0" rx="20" ry="16"/><ellipse cx="0" cy="-22" rx="13" ry="11"/><rect x="-4" y="-60" width="8" height="40"/></g><path d="M264.9 428.472 v-14 m-4 4 v-8 m8 8 v-8" stroke="rgba(0,0,0,.85)" stroke-width="3" fill="none"/><path d="M78.3 418.212 v-14 m-4 4 v-8 m8 8 v-8" stroke="rgba(0,0,0,.85)" stroke-width="3" fill="none"/><path d="M6.8999999999999995 402.876 v-14 m-4 4 v-8 m8 8 v-8" stroke="rgba(0,0,0,.85)" stroke-width="3" fill="none"/><path d="M131.7 426.06 v-14 m-4 4 v-8 m8 8 v-8" stroke="rgba(0,0,0,.85)" stroke-width="3" fill="none"/><path d="M288.3 414.828 v-14 m-4 4 v-8 m8 8 v-8" stroke="rgba(0,0,0,.85)" stroke-width="3" fill="none"/><path d="M111.9 397.97999999999996 v-14 m-4 4 v-8 m8 8 v-8" stroke="rgba(0,0,0,.85)" stroke-width="3" fill="none"/><path d="M255.29999999999998 416.34000000000003 v-14 m-4 4 v-8 m8 8 v-8" stroke="rgba(0,0,0,.85)" stroke-width="3" fill="none"/><path d="M102.00000000000001 429.264 v-14 m-4 4 v-8 m8 8 v-8" stroke="rgba(0,0,0,.85)" stroke-width="3" fill="none"/><path d="M8.1 412.56 v-14 m-4 4 v-8 m8 8 v-8" stroke="rgba(0,0,0,.85)" stroke-width="3" fill="none"/><path d="M37.8 429.156 v-14 m-4 4 v-8 m8 8 v-8" stroke="rgba(0,0,0,.85)" stroke-width="3" fill="none"/><path d="M8.700000000000001 398.77200000000005 v-14 m-4 4 v-8 m8 8 v-8" stroke="rgba(0,0,0,.85)" stroke-width="3" fill="none"/><path d="M0.9 420.984 v-14 m-4 4 v-8 m8 8 v-8" stroke="rgba(0,0,0,.85)" stroke-width="3" fill="none"/><path d="M229.5 423.71999999999997 v-14 m-4 4 v-8 m8 8 v-8" stroke="rgba(0,0,0,.85)" stroke-width="3" fill="none"/><path d="M232.5 407.196 v-14 m-4 4 v-8 m8 8 v-8" stroke="rgba(0,0,0,.85)" stroke-width="3" fill="none"/><path d="M259.2 399.67199999999997 v-14 m-4 4 v-8 m8 8 v-8" stroke="rgba(0,0,0,.85)" stroke-width="3" fill="none"/><path d="M246.6 410.25600000000003 v-14 m-4 4 v-8 m8 8 v-8" stroke="rgba(0,0,0,.85)" stroke-width="3" fill="none"/></g><rect width="300" height="450" fill="url(#vig)"/><text x="150" y="258" text-anchor="middle" font-family="Poppins, Arial, sans-serif" font-weight="700" font-size="29" fill="#fff" style="paint-order:stroke" stroke="rgba(0,0,0,.55)" stroke-width="7">Aguner Gaan</text><rect x="104" y="342" width="92" height="26" rx="13" fill="rgba(0,0,0,.65)"/><text x="150" y="360" text-anchor="middle" font-family="Poppins, Arial, sans-serif" font-weight="600" font-size="13" fill="#fff">2025 • 720p</text><text x="150" y="404" text-anchor="middle" font-family="Poppins, Arial, sans-serif" font-weight="700" font-size="12" letter-spacing="3" fill="rgba(255,255,255,.8)">MOVIEBAZAR</text><rect x="7" y="14" width="9" height="13" rx="3" fill="rgba(0,0,0,.5)"/><rect x="7" y="40" width="9" height="13" rx="3" fill="rgba(0,0,0,.5)"/><rect x="7" y="66" width="9" height="13" rx="3" fill="rgba(0,0,0,.5)"/><rect x="7" y="92" width="9" height="13" rx="3" fill="rgba(0,0,0,.5)"/><rect x="7" y="118" width="9" height="13" rx="3" fill="rgba(0,0,0,.5)"/><rect x="7" y="144" width="9" height="13" rx="3" fill="rgba(0,0,0,.5)"/><rect x="7" y="170" width="9" height="13" rx="3" fill="rgba(0,0,0,.5)"/><rect x="7" y="196" width="9" height="13" rx="3" fill="rgba(0,0,0,.5)"/><rect x="7" y="222" width="9" height="13" rx="3" fill="rgba(0,0,0,.5)"/><rect x="7" y="248" width="9" height="13" rx="3" fill="rgba(0,0,0,.5)"/><rect x="7" y="274" width="9" height="13" rx="3" fill="rgba(0,0,0,.5)"/><rect x="7" y="300" width="9" height="13" rx="3" fill="rgba(0,0,0,.5)"/><rect x="7" y="326" width="9" height="13" rx="3" fill="rgba(0,0,0,.5)"/><rect x="7" y="352" width="9" height="13" rx="3" fill="rgba(0,0,0,.5)"/><rect x="7" y="378" width="9" height="13" rx="3" fill="rgba(0,0,0,.5)"/><rect x="7" y="404" width="9" height="13" rx="3" fill="rgba(0,0,0,.5)"/><rect x="284" y="14" width="9" height="13" rx="3" fill="rgba(0,0,0,.5)"/><rect x="284" y="40" width="9" height="13" rx="3" fill="rgba(0,0,0,.5)"/><rect x="284" y="66" width="9" height="13" rx="3" fill="rgba(0,0,0,.5)"/><rect x="284" y="92" width="9" height="13" rx="3" fill="rgba(0,0,0,.5)"/><rect x="284" y="118" width="9" height="13" rx="3" fill="rgba(0,0,0,.5)"/><rect x="284" y="144" width="9" height="13" rx="3" fill="rgba(0,0,0,.5)"/><rect x="284" y="170" width="9" height="13" rx="3" fill="rgba(0,0,0,.5)"/><rect x="284" y="196" width="9" height="13" rx="3" fill="rgba(0,0,0,.5)"/><rect x="284" y="222" width="9" height="13" rx="3" fill="rgba(0,0,0,.5)"/><rect x="284" y="248" width="9" height="13" rx="3" fill="rgba(0,0,0,.5)"/><rect x="284" y="274" width="9" height="13" rx="3" fill="rgba(0,0,0,.5)"/><rect x="284" y="300" width="9" height="13" rx="3" fill="rgba(0,0,0,.5)"/><rect x="284" y="326" width="9" height="13" rx="3" fill="rgba(0,0,0,.5)"/><rect x="284" y="352" width="9" height="13" rx="3" fill="rgba(0,0,0,.5)"/><rect x="284" y="378" width="9" height="13" rx="3" fill="rgba(0,0,0,.5)"/><rect x="284" y="404" width="9" height="13" rx="3" fill="rgba(0,0,0,.5)"/><rect width="300" height="450" filter="url(#grain)" opacity=".5"/></svg>