<svg xmlns="http://www.w3.org/2000/svg" width="300" height="450" viewBox="0 0 300 450"><defs><linearGradient id="sky" x1="0" y1="0" x2="0" y2="1"><stop offset="0" stop-color="#0a1a3d"/><stop offset="0.55" stop-color="#005c97"/><stop offset="1" stop-color="#0a1a3d"/></linearGradient><radialGradient id="glow"><stop offset="0" stop-color="rgba(255,255,255,.55)"/><stop offset="1" stop-color="rgba(255,255,255,0)"/></radialGradient><linearGradient id="sea" x1="0" y1="0" x2="0" y2="1"><stop offset="0" stop-color="#005c97"/><stop offset="1" stop-color="#0a1a3d"/></linearGradient><radialGradient id="planet"><stop offset="0" stop-color="#005c97"/><stop offset="1" stop-color="#0a1a3d"/></radialGradient><linearGradient id="track" x1="0" y1="0" x2="0" y2="1"><stop offset="0" stop-color="#8c2b23"/><stop offset="1" stop-color="#4a1410"/></linearGradient><linearGradient id="bw" x1="0" y1="0" x2="0" y2="1"><stop offset="0" stop-color="#d8d8d8"/><stop offset="1" stop-color="#2a2a2a"/></linearGradient><linearGradient id="vig" x1="0" y1="0" x2="0" y2="1"><stop offset="0" stop-color="rgba(0,0,0,.45)"/><stop offset="0.35" stop-color="rgba(0,0,0,0)"/><stop offset="0.72" stop-color="rgba(0,0,0,.55)"/><stop offset="1" stop-color="rgba(0,0,0,.92)"/></linearGradient><filter id="grain"><feTurbulence type="fractalNoise" baseFrequency="0.9" numOctaves="2" stitchTiles="stitch"/><feColorMatrix type="saturate" values="0"/><feComponentTransfer><feFuncA type="linear" slope="0.06"/></feComponentTransfer></filter></defs><g><rect width="300" height="450" fill="url(#sky)"/><circle cx="234" cy="72" r="21.000000000000004" fill="rgba(255,245,200,.95)"/><g fill="rgba(255,255,255,.85)"><ellipse cx="297.9" cy="113.13000000000001" rx="26" ry="13"/><ellipse cx="315.9" cy="116.13000000000001" rx="18" ry="10"/><ellipse cx="279.9" cy="117.13000000000001" rx="16" ry="9"/></g><g fill="rgba(255,255,255,.85)"><ellipse cx="8.4" cy="136.44" rx="26" ry="13"/><ellipse cx="26.4" cy="139.44" rx="18" ry="10"/><ellipse cx="-9.6" cy="140.44" rx="16" ry="9"/></g><g fill="rgba(255,255,255,.85)"><ellipse cx="279.90000000000003" cy="106.74000000000001" rx="26" ry="13"/><ellipse cx="297.90000000000003" cy="109.74000000000001" rx="18" ry="10"/><ellipse cx="261.90000000000003" cy="110.74000000000001" rx="16" ry="9"/></g><g fill="rgba(255,255,255,.85)"><ellipse cx="93.6" cy="84.42" rx="26" ry="13"/><ellipse cx="111.6" cy="87.42" rx="18" ry="10"/><ellipse cx="75.6" cy="88.42" rx="16" ry="9"/></g><path d="M0 450 L0 297 q60 -54 126 0 t126 0 t126 0 L300 450 Z" fill="rgba(60,140,60,.85)"/><path d="M0 450 L0 360 q90 -45 180 0 t180 0 L300 450 Z" fill="rgba(30,100,40,.95)"/><rect x="253.596" y="342.151" width="6" height="18.02" fill="rgba(60,35,15,.9)"/><circle cx="256.596" cy="336.151" r="14.416" fill="rgba(40,120,50,.95)"/><rect x="43.176" y="327.97599999999994" width="6" height="14.24" fill="rgba(60,35,15,.9)"/><circle cx="46.176" cy="321.97599999999994" r="11.392000000000001" fill="rgba(40,120,50,.95)"/><rect x="52.248" y="351.98799999999994" width="6" height="18.451999999999998" fill="rgba(60,35,15,.9)"/><circle cx="55.248" cy="345.98799999999994" r="14.7616" fill="rgba(40,120,50,.95)"/><rect x="271.236" y="317.28999999999996" width="6" height="15.728" fill="rgba(60,35,15,.9)"/><circle cx="274.236" cy="311.28999999999996" r="12.5824" fill="rgba(40,120,50,.95)"/><rect x="73.91999999999999" y="310.585" width="6" height="24.259999999999998" fill="rgba(60,35,15,.9)"/><circle cx="76.91999999999999" cy="304.585" r="19.408" fill="rgba(40,120,50,.95)"/><g fill="rgba(0,0,0,.85)" transform="translate(150 360) scale(1)"><ellipse cx="0" cy="-26" rx="14" ry="13"/><ellipse cx="-14" cy="-32" rx="5" ry="9"/><ellipse cx="14" cy="-32" rx="5" ry="9"/><ellipse cx="0" cy="0" rx="17" ry="19"/><circle cx="-5" cy="-28" r="2" fill="#fff"/><circle cx="5" cy="-28" r="2" fill="#fff"/></g><circle cx="239.7" cy="270.9" r="1.73" fill="rgba(255,255,180,.85)"/><circle cx="170.4" cy="194.8" r="2.1639999999999997" fill="rgba(255,255,180,.85)"/><circle cx="157.2" cy="325.8" r="1.024" fill="rgba(255,255,180,.85)"/><circle cx="277.8" cy="40.5" r="2.9779999999999998" fill="rgba(255,255,180,.85)"/><circle cx="200.4" cy="306.5" r="2.95" fill="rgba(255,255,180,.85)"/><circle cx="125.7" cy="277.6" r="1.322" fill="rgba(255,255,180,.85)"/><circle cx="97.8" cy="104.9" r="2.5060000000000002" fill="rgba(255,255,180,.85)"/><circle cx="70.2" cy="63.9" r="1.53" fill="rgba(255,255,180,.85)"/><circle cx="261.9" cy="245.7" r="2.778" fill="rgba(255,255,180,.85)"/><circle cx="118.5" cy="445.5" r="2.178" fill="rgba(255,255,180,.85)"/><circle cx="1.2" cy="44.1" r="1.448" fill="rgba(255,255,180,.85)"/><circle cx="14.7" cy="409.1" r="2.06" fill="rgba(255,255,180,.85)"/><circle cx="26.4" cy="136.8" r="1.5859999999999999" fill="rgba(255,255,180,.85)"/><circle cx="135.6" cy="164.3" r="1.074" fill="rgba(255,255,180,.85)"/><circle cx="282.9" cy="79.6" r="1.752" fill="rgba(255,255,180,.85)"/><circle cx="36.9" cy="119.7" r="1.53" fill="rgba(255,255,180,.85)"/></g><rect width="300" height="450" fill="url(#vig)"/><text x="150" y="241" text-anchor="middle" font-family="Poppins, Arial, sans-serif" font-weight="700" font-size="29" fill="#fff" style="paint-order:stroke" stroke="rgba(0,0,0,.55)" stroke-width="7">Cosmos</text><text x="150" y="276" text-anchor="middle" font-family="Poppins, Arial, sans-serif" font-weight="700" font-size="29" fill="#fff" style="paint-order:stroke" stroke="rgba(0,0,0,.55)" stroke-width="7">Laundromat</text><rect x="104" y="342" width="92" height="26" rx="13" fill="rgba(0,0,0,.65)"/><text x="150" y="360" text-anchor="middle" font-family="Poppins, Arial, sans-serif" font-weight="600" font-size="13" fill="#fff">2015 • 1080p</text><text x="150" y="404" text-anchor="middle" font-family="Poppins, Arial, sans-serif" font-weight="700" font-size="12" letter-spacing="3" fill="rgba(255,255,255,.8)">MOVIEBAZAR</text><rect x="7" y="14" width="9" height="13" rx="3" fill="rgba(0,0,0,.5)"/><rect x="7" y="40" width="9" height="13" rx="3" fill="rgba(0,0,0,.5)"/><rect x="7" y="66" width="9" height="13" rx="3" fill="rgba(0,0,0,.5)"/><rect x="7" y="92" width="9" height="13" rx="3" fill="rgba(0,0,0,.5)"/><rect x="7" y="118" width="9" height="13" rx="3" fill="rgba(0,0,0,.5)"/><rect x="7" y="144" width="9" height="13" rx="3" fill="rgba(0,0,0,.5)"/><rect x="7" y="170" width="9" height="13" rx="3" fill="rgba(0,0,0,.5)"/><rect x="7" y="196" width="9" height="13" rx="3" fill="rgba(0,0,0,.5)"/><rect x="7" y="222" width="9" height="13" rx="3" fill="rgba(0,0,0,.5)"/><rect x="7" y="248" width="9" height="13" rx="3" fill="rgba(0,0,0,.5)"/><rect x="7" y="274" width="9" height="13" rx="3" fill="rgba(0,0,0,.5)"/><rect x="7" y="300" width="9" height="13" rx="3" fill="rgba(0,0,0,.5)"/><rect x="7" y="326" width="9" height="13" rx="3" fill="rgba(0,0,0,.5)"/><rect x="7" y="352" width="9" height="13" rx="3" fill="rgba(0,0,0,.5)"/><rect x="7" y="378" width="9" height="13" rx="3" fill="rgba(0,0,0,.5)"/><rect x="7" y="404" width="9" height="13" rx="3" fill="rgba(0,0,0,.5)"/><rect x="284" y="14" width="9" height="13" rx="3" fill="rgba(0,0,0,.5)"/><rect x="284" y="40" width="9" height="13" rx="3" fill="rgba(0,0,0,.5)"/><rect x="284" y="66" width="9" height="13" rx="3" fill="rgba(0,0,0,.5)"/><rect x="284" y="92" width="9" height="13" rx="3" fill="rgba(0,0,0,.5)"/><rect x="284" y="118" width="9" height="13" rx="3" fill="rgba(0,0,0,.5)"/><rect x="284" y="144" width="9" height="13" rx="3" fill="rgba(0,0,0,.5)"/><rect x="284" y="170" width="9" height="13" rx="3" fill="rgba(0,0,0,.5)"/><rect x="284" y="196" width="9" height="13" rx="3" fill="rgba(0,0,0,.5)"/><rect x="284" y="222" width="9" height="13" rx="3" fill="rgba(0,0,0,.5)"/><rect x="284" y="248" width="9" height="13" rx="3" fill="rgba(0,0,0,.5)"/><rect x="284" y="274" width="9" height="13" rx="3" fill="rgba(0,0,0,.5)"/><rect x="284" y="300" width="9" height="13" rx="3" fill="rgba(0,0,0,.5)"/><rect x="284" y="326" width="9" height="13" rx="3" fill="rgba(0,0,0,.5)"/><rect x="284" y="352" width="9" height="13" rx="3" fill="rgba(0,0,0,.5)"/><rect x="284" y="378" width="9" height="13" rx="3" fill="rgba(0,0,0,.5)"/><rect x="284" y="404" width="9" height="13" rx="3" fill="rgba(0,0,0,.5)"/><rect width="300" height="450" filter="url(#grain)" opacity=".5"/></svg>