<svg xmlns="http://www.w3.org/2000/svg" width="300" height="450" viewBox="0 0 300 450"><defs><linearGradient id="sky" x1="0" y1="0" x2="0" y2="1"><stop offset="0" stop-color="#062a33"/><stop offset="0.55" stop-color="#0f7b8a"/><stop offset="1" stop-color="#062a33"/></linearGradient><radialGradient id="glow"><stop offset="0" stop-color="rgba(255,255,255,.55)"/><stop offset="1" stop-color="rgba(255,255,255,0)"/></radialGradient><linearGradient id="sea" x1="0" y1="0" x2="0" y2="1"><stop offset="0" stop-color="#0f7b8a"/><stop offset="1" stop-color="#062a33"/></linearGradient><radialGradient id="planet"><stop offset="0" stop-color="#0f7b8a"/><stop offset="1" stop-color="#062a33"/></radialGradient><linearGradient id="track" x1="0" y1="0" x2="0" y2="1"><stop offset="0" stop-color="#8c2b23"/><stop offset="1" stop-color="#4a1410"/></linearGradient><linearGradient id="bw" x1="0" y1="0" x2="0" y2="1"><stop offset="0" stop-color="#d8d8d8"/><stop offset="1" stop-color="#2a2a2a"/></linearGradient><linearGradient id="vig" x1="0" y1="0" x2="0" y2="1"><stop offset="0" stop-color="rgba(0,0,0,.45)"/><stop offset="0.35" stop-color="rgba(0,0,0,0)"/><stop offset="0.72" stop-color="rgba(0,0,0,.55)"/><stop offset="1" stop-color="rgba(0,0,0,.92)"/></linearGradient><filter id="grain"><feTurbulence type="fractalNoise" baseFrequency="0.9" numOctaves="2" stitchTiles="stitch"/><feColorMatrix type="saturate" values="0"/><feComponentTransfer><feFuncA type="linear" slope="0.06"/></feComponentTransfer></filter></defs><g><rect width="300" height="450" fill="url(#sky)"/><ellipse cx="210" cy="135" rx="105" ry="81" fill="url(#glow)" opacity=".55"/><circle cx="138.3" cy="33.75" r="1.4673999999999998" fill="rgba(255,255,255,0.5855999999999999)"/><circle cx="101.4" cy="322.3125" r="1.6522" fill="rgba(255,255,255,0.5622)"/><circle cx="299.7" cy="223.76250000000002" r="1.8496" fill="rgba(255,255,255,0.4572)"/><circle cx="138.9" cy="326.36249999999995" r="1.5373999999999999" fill="rgba(255,255,255,0.6527999999999999)"/><circle cx="39.6" cy="244.35000000000002" r="1.0614" fill="rgba(255,255,255,0.44279999999999997)"/><circle cx="253.5" cy="160.3125" r="0.6792" fill="rgba(255,255,255,0.4356)"/><circle cx="264" cy="152.2125" r="0.5574" fill="rgba(255,255,255,0.7494)"/><circle cx="118.80000000000001" cy="189.3375" r="0.9199999999999999" fill="rgba(255,255,255,0.3414)"/><circle cx="192" cy="192.71249999999998" r="0.9046" fill="rgba(255,255,255,0.6654)"/><circle cx="6.8999999999999995" cy="181.2375" r="0.9955999999999999" fill="rgba(255,255,255,0.4254)"/><circle cx="20.1" cy="112.05000000000001" r="0.577" fill="rgba(255,255,255,0.4134)"/><circle cx="147" cy="38.8125" r="0.808" fill="rgba(255,255,255,0.6384)"/><circle cx="294" cy="327.0375" r="0.9059999999999999" fill="rgba(255,255,255,0.6492)"/><circle cx="278.7" cy="244.0125" r="1.0628" fill="rgba(255,255,255,0.7265999999999999)"/><circle cx="4.5" cy="194.39999999999998" r="1.8397999999999999" fill="rgba(255,255,255,0.8106)"/><circle cx="18.3" cy="298.35" r="1.8454" fill="rgba(255,255,255,0.7445999999999999)"/><circle cx="252.89999999999998" cy="133.3125" r="0.9312" fill="rgba(255,255,255,0.6006)"/><circle cx="132.6" cy="25.3125" r="1.6088" fill="rgba(255,255,255,0.5538)"/><circle cx="268.5" cy="264.26250000000005" r="1.6326" fill="rgba(255,255,255,0.4578)"/><circle cx="145.2" cy="283.5" r="1.585" fill="rgba(255,255,255,0.8735999999999999)"/><circle cx="61.49999999999999" cy="291.9375" r="1.1061999999999999" fill="rgba(255,255,255,0.7307999999999999)"/><circle cx="142.5" cy="140.7375" r="1.438" fill="rgba(255,255,255,0.42)"/><circle cx="120" cy="334.79999999999995" r="1.284" fill="rgba(255,255,255,0.5952)"/><circle cx="231.9" cy="8.100000000000001" r="1.0110000000000001" fill="rgba(255,255,255,0.6396)"/><circle cx="87" cy="41.175" r="1.2728000000000002" fill="rgba(255,255,255,0.8681999999999999)"/><circle cx="166.8" cy="117.11249999999998" r="1.5191999999999999" fill="rgba(255,255,255,0.8568)"/><circle cx="141.9" cy="57.03750000000001" r="0.7058" fill="rgba(255,255,255,0.3072)"/><circle cx="231.6" cy="201.825" r="1.0068" fill="rgba(255,255,255,0.8597999999999999)"/><circle cx="4.5" cy="257.17499999999995" r="0.9256" fill="rgba(255,255,255,0.7991999999999999)"/><circle cx="208.49999999999997" cy="326.36249999999995" r="0.528" fill="rgba(255,255,255,0.3846)"/><circle cx="211.5" cy="239.96249999999998" r="0.8346" fill="rgba(255,255,255,0.8652)"/><circle cx="21.000000000000004" cy="253.79999999999998" r="1.2952" fill="rgba(255,255,255,0.6048)"/><circle cx="135" cy="143.77499999999998" r="0.5938" fill="rgba(255,255,255,0.3402)"/><circle cx="142.2" cy="195.075" r="0.6456" fill="rgba(255,255,255,0.30779999999999996)"/><circle cx="277.8" cy="51.974999999999994" r="0.5266" fill="rgba(255,255,255,0.7163999999999999)"/><circle cx="289.2" cy="90.78750000000001" r="0.5322" fill="rgba(255,255,255,0.3354)"/><circle cx="188.1" cy="124.53750000000001" r="0.78" fill="rgba(255,255,255,0.7044)"/><circle cx="24.900000000000002" cy="242.325" r="1.5275999999999998" fill="rgba(255,255,255,0.8526)"/><circle cx="53.699999999999996" cy="140.7375" r="0.5182" fill="rgba(255,255,255,0.6876)"/><circle cx="61.199999999999996" cy="261.5625" r="0.7198" fill="rgba(255,255,255,0.8963999999999999)"/><circle cx="55.199999999999996" cy="304.425" r="0.6162" fill="rgba(255,255,255,0.5429999999999999)"/><circle cx="99" cy="42.525000000000006" r="1.5808" fill="rgba(255,255,255,0.8741999999999999)"/><circle cx="60.6" cy="6.074999999999999" r="1.8412" fill="rgba(255,255,255,0.6246)"/><circle cx="158.1" cy="244.35000000000002" r="1.6046" fill="rgba(255,255,255,0.5489999999999999)"/><circle cx="266.4" cy="191.7" r="1.3862" fill="rgba(255,255,255,0.5526)"/><circle cx="82.5" cy="179.88750000000002" r="1.3666" fill="rgba(255,255,255,0.7283999999999999)"/><circle cx="152.1" cy="276.075" r="1.4449999999999998" fill="rgba(255,255,255,0.5502)"/><circle cx="298.2" cy="116.4375" r="0.6008" fill="rgba(255,255,255,0.3732)"/><circle cx="206.10000000000002" cy="157.275" r="0.7296" fill="rgba(255,255,255,0.5448)"/><circle cx="74.1" cy="161.325" r="0.7268" fill="rgba(255,255,255,0.4638)"/><circle cx="227.1" cy="169.425" r="1.3287999999999998" fill="rgba(255,255,255,0.3882)"/><circle cx="200.10000000000002" cy="175.5" r="1.2546" fill="rgba(255,255,255,0.4092)"/><circle cx="239.10000000000002" cy="248.39999999999998" r="1.8034" fill="rgba(255,255,255,0.6012)"/><circle cx="167.4" cy="22.6125" r="0.5546" fill="rgba(255,255,255,0.3858)"/><circle cx="167.4" cy="146.47500000000002" r="1.1916" fill="rgba(255,255,255,0.33899999999999997)"/><circle cx="212.7" cy="194.0625" r="1.5934" fill="rgba(255,255,255,0.5556)"/><circle cx="121.80000000000001" cy="29.025" r="1.1552" fill="rgba(255,255,255,0.35519999999999996)"/><circle cx="162" cy="45.225" r="1.7333999999999998" fill="rgba(255,255,255,0.696)"/><circle cx="46.8" cy="65.8125" r="1.3175999999999999" fill="rgba(255,255,255,0.315)"/><circle cx="83.4" cy="84.375" r="1.3414" fill="rgba(255,255,255,0.7307999999999999)"/><circle cx="21.299999999999997" cy="172.4625" r="1.3638" fill="rgba(255,255,255,0.8195999999999999)"/><circle cx="83.4" cy="207.89999999999998" r="1.3092" fill="rgba(255,255,255,0.7674)"/><circle cx="191.1" cy="280.79999999999995" r="1.4939999999999998" fill="rgba(255,255,255,0.5207999999999999)"/><circle cx="184.2" cy="28.012500000000003" r="0.5364" fill="rgba(255,255,255,0.6414)"/><circle cx="224.7" cy="173.1375" r="0.7869999999999999" fill="rgba(255,255,255,0.6264000000000001)"/><circle cx="157.20000000000002" cy="89.775" r="0.5811999999999999" fill="rgba(255,255,255,0.8322)"/><circle cx="183" cy="77.625" r="1.0796" fill="rgba(255,255,255,0.3906)"/><circle cx="173.1" cy="284.17499999999995" r="1.8985999999999998" fill="rgba(255,255,255,0.3282)"/><circle cx="21.299999999999997" cy="95.175" r="1.6787999999999998" fill="rgba(255,255,255,0.8808)"/><circle cx="1.5" cy="42.8625" r="1.6186" fill="rgba(255,255,255,0.6006)"/><ellipse cx="204.00000000000003" cy="135" rx="81.6" ry="19.200000000000003" fill="none" stroke="rgba(255,255,255,.35)" stroke-width="3" transform="rotate(-18 204.00000000000003 135)"/><circle cx="204.00000000000003" cy="135" r="48" fill="url(#planet)"/><rect x="0" y="324" width="300" height="126" fill="rgba(0,0,0,.55)"/><line x1="0" y1="324" x2="-138" y2="450" stroke="rgba(120,220,255,.30)" stroke-width="1"/><line x1="25" y1="324" x2="-90" y2="450" stroke="rgba(120,220,255,.30)" stroke-width="1"/><line x1="50" y1="324" x2="-42" y2="450" stroke="rgba(120,220,255,.30)" stroke-width="1"/><line x1="75" y1="324" x2="6" y2="450" stroke="rgba(120,220,255,.30)" stroke-width="1"/><line x1="100" y1="324" x2="54" y2="450" stroke="rgba(120,220,255,.30)" stroke-width="1"/><line x1="125" y1="324" x2="102" y2="450" stroke="rgba(120,220,255,.30)" stroke-width="1"/><line x1="150" y1="324" x2="150" y2="450" stroke="rgba(120,220,255,.30)" stroke-width="1"/><line x1="175" y1="324" x2="198" y2="450" stroke="rgba(120,220,255,.30)" stroke-width="1"/><line x1="200" y1="324" x2="246" y2="450" stroke="rgba(120,220,255,.30)" stroke-width="1"/><line x1="225" y1="324" x2="294" y2="450" stroke="rgba(120,220,255,.30)" stroke-width="1"/><line x1="250" y1="324" x2="342" y2="450" stroke="rgba(120,220,255,.30)" stroke-width="1"/><line x1="275" y1="324" x2="390" y2="450" stroke="rgba(120,220,255,.30)" stroke-width="1"/><line x1="300" y1="324" x2="438" y2="450" stroke="rgba(120,220,255,.30)" stroke-width="1"/><line x1="0" y1="325.29889059966706" x2="300" y2="325.29889059966706" stroke="rgba(120,220,255,0.25)" stroke-width="1"/><line x1="0" y1="329.9681339806347" x2="300" y2="329.9681339806347" stroke="rgba(120,220,255,0.22000000000000003)" stroke-width="1"/><line x1="0" y1="338.56261386462916" x2="300" y2="338.56261386462916" stroke="rgba(120,220,255,0.19000000000000003)" stroke-width="1"/><line x1="0" y1="351.4223427438279" x2="300" y2="351.4223427438279" stroke="rgba(120,220,255,0.16000000000000003)" stroke-width="1"/><line x1="0" y1="368.80294718384494" x2="300" y2="368.80294718384494" stroke="rgba(120,220,255,0.13000000000000003)" stroke-width="1"/><line x1="0" y1="390.91220236302615" x2="300" y2="390.91220236302615" stroke="rgba(120,220,255,0.10000000000000003)" stroke-width="1"/><line x1="0" y1="417.9265264549695" x2="300" y2="417.9265264549695" stroke="rgba(120,220,255,0.07000000000000003)" stroke-width="1"/></g><rect width="300" height="450" fill="url(#vig)"/><text x="150" y="241" text-anchor="middle" font-family="Poppins, Arial, sans-serif" font-weight="700" font-size="29" fill="#fff" style="paint-order:stroke" stroke="rgba(0,0,0,.55)" stroke-width="7">Elephants</text><text x="150" y="276" text-anchor="middle" font-family="Poppins, Arial, sans-serif" font-weight="700" font-size="29" fill="#fff" style="paint-order:stroke" stroke="rgba(0,0,0,.55)" stroke-width="7">Dream</text><rect x="104" y="342" width="92" height="26" rx="13" fill="rgba(0,0,0,.65)"/><text x="150" y="360" text-anchor="middle" font-family="Poppins, Arial, sans-serif" font-weight="600" font-size="13" fill="#fff">2006 • 720p</text><text x="150" y="404" text-anchor="middle" font-family="Poppins, Arial, sans-serif" font-weight="700" font-size="12" letter-spacing="3" fill="rgba(255,255,255,.8)">MOVIEBAZAR</text><rect x="7" y="14" width="9" height="13" rx="3" fill="rgba(0,0,0,.5)"/><rect x="7" y="40" width="9" height="13" rx="3" fill="rgba(0,0,0,.5)"/><rect x="7" y="66" width="9" height="13" rx="3" fill="rgba(0,0,0,.5)"/><rect x="7" y="92" width="9" height="13" rx="3" fill="rgba(0,0,0,.5)"/><rect x="7" y="118" width="9" height="13" rx="3" fill="rgba(0,0,0,.5)"/><rect x="7" y="144" width="9" height="13" rx="3" fill="rgba(0,0,0,.5)"/><rect x="7" y="170" width="9" height="13" rx="3" fill="rgba(0,0,0,.5)"/><rect x="7" y="196" width="9" height="13" rx="3" fill="rgba(0,0,0,.5)"/><rect x="7" y="222" width="9" height="13" rx="3" fill="rgba(0,0,0,.5)"/><rect x="7" y="248" width="9" height="13" rx="3" fill="rgba(0,0,0,.5)"/><rect x="7" y="274" width="9" height="13" rx="3" fill="rgba(0,0,0,.5)"/><rect x="7" y="300" width="9" height="13" rx="3" fill="rgba(0,0,0,.5)"/><rect x="7" y="326" width="9" height="13" rx="3" fill="rgba(0,0,0,.5)"/><rect x="7" y="352" width="9" height="13" rx="3" fill="rgba(0,0,0,.5)"/><rect x="7" y="378" width="9" height="13" rx="3" fill="rgba(0,0,0,.5)"/><rect x="7" y="404" width="9" height="13" rx="3" fill="rgba(0,0,0,.5)"/><rect x="284" y="14" width="9" height="13" rx="3" fill="rgba(0,0,0,.5)"/><rect x="284" y="40" width="9" height="13" rx="3" fill="rgba(0,0,0,.5)"/><rect x="284" y="66" width="9" height="13" rx="3" fill="rgba(0,0,0,.5)"/><rect x="284" y="92" width="9" height="13" rx="3" fill="rgba(0,0,0,.5)"/><rect x="284" y="118" width="9" height="13" rx="3" fill="rgba(0,0,0,.5)"/><rect x="284" y="144" width="9" height="13" rx="3" fill="rgba(0,0,0,.5)"/><rect x="284" y="170" width="9" height="13" rx="3" fill="rgba(0,0,0,.5)"/><rect x="284" y="196" width="9" height="13" rx="3" fill="rgba(0,0,0,.5)"/><rect x="284" y="222" width="9" height="13" rx="3" fill="rgba(0,0,0,.5)"/><rect x="284" y="248" width="9" height="13" rx="3" fill="rgba(0,0,0,.5)"/><rect x="284" y="274" width="9" height="13" rx="3" fill="rgba(0,0,0,.5)"/><rect x="284" y="300" width="9" height="13" rx="3" fill="rgba(0,0,0,.5)"/><rect x="284" y="326" width="9" height="13" rx="3" fill="rgba(0,0,0,.5)"/><rect x="284" y="352" width="9" height="13" rx="3" fill="rgba(0,0,0,.5)"/><rect x="284" y="378" width="9" height="13" rx="3" fill="rgba(0,0,0,.5)"/><rect x="284" y="404" width="9" height="13" rx="3" fill="rgba(0,0,0,.5)"/><rect width="300" height="450" filter="url(#grain)" opacity=".5"/></svg>