<svg xmlns="http://www.w3.org/2000/svg" width="300" height="450" viewBox="0 0 300 450"><defs><linearGradient id="sky" x1="0" y1="0" x2="0" y2="1"><stop offset="0" stop-color="#0b2a3d"/><stop offset="0.55" stop-color="#360033"/><stop offset="1" stop-color="#0b2a3d"/></linearGradient><radialGradient id="glow"><stop offset="0" stop-color="rgba(255,255,255,.55)"/><stop offset="1" stop-color="rgba(255,255,255,0)"/></radialGradient><linearGradient id="sea" x1="0" y1="0" x2="0" y2="1"><stop offset="0" stop-color="#360033"/><stop offset="1" stop-color="#0b2a3d"/></linearGradient><radialGradient id="planet"><stop offset="0" stop-color="#360033"/><stop offset="1" stop-color="#0b2a3d"/></radialGradient><linearGradient id="track" x1="0" y1="0" x2="0" y2="1"><stop offset="0" stop-color="#8c2b23"/><stop offset="1" stop-color="#4a1410"/></linearGradient><linearGradient id="bw" x1="0" y1="0" x2="0" y2="1"><stop offset="0" stop-color="#d8d8d8"/><stop offset="1" stop-color="#2a2a2a"/></linearGradient><linearGradient id="vig" x1="0" y1="0" x2="0" y2="1"><stop offset="0" stop-color="rgba(0,0,0,.45)"/><stop offset="0.35" stop-color="rgba(0,0,0,0)"/><stop offset="0.72" stop-color="rgba(0,0,0,.55)"/><stop offset="1" stop-color="rgba(0,0,0,.92)"/></linearGradient><filter id="grain"><feTurbulence type="fractalNoise" baseFrequency="0.9" numOctaves="2" stitchTiles="stitch"/><feColorMatrix type="saturate" values="0"/><feComponentTransfer><feFuncA type="linear" slope="0.06"/></feComponentTransfer></filter></defs><g><rect width="300" height="450" fill="url(#sky)"/><circle cx="91.32000000000001" cy="73.30499999999999" r="16.5" fill="rgba(255,255,255,.9)"/><circle cx="91.32000000000001" cy="73.30499999999999" r="36" fill="url(#glow)"/><circle cx="118.80000000000001" cy="56.160000000000004" r="0.6922999999999999" fill="rgba(255,255,255,0.62)"/><circle cx="92.1" cy="84.96" r="1.0497999999999998" fill="rgba(255,255,255,0.26)"/><circle cx="251.1" cy="34.92" r="1.4346" fill="rgba(255,255,255,0.2825)"/><circle cx="182.1" cy="160.92000000000002" r="1.2201" fill="rgba(255,255,255,0.5660000000000001)"/><circle cx="74.7" cy="154.44" r="1.1889" fill="rgba(255,255,255,0.554)"/><circle cx="169.79999999999998" cy="17.28" r="0.9406" fill="rgba(255,255,255,0.476)"/><circle cx="38.4" cy="56.7" r="0.9822" fill="rgba(255,255,255,0.384)"/><circle cx="107.39999999999999" cy="151.92000000000002" r="1.1122" fill="rgba(255,255,255,0.3905)"/><circle cx="34.5" cy="137.34" r="1.8194" fill="rgba(255,255,255,0.5369999999999999)"/><circle cx="39.6" cy="84.96" r="0.7729" fill="rgba(255,255,255,0.591)"/><circle cx="187.5" cy="75.24" r="1.0368" fill="rgba(255,255,255,0.648)"/><circle cx="214.2" cy="10.440000000000001" r="1.2084000000000001" fill="rgba(255,255,255,0.5665)"/><circle cx="62.699999999999996" cy="24.480000000000004" r="1.4918" fill="rgba(255,255,255,0.6845)"/><circle cx="31.8" cy="90.54" r="0.9393" fill="rgba(255,255,255,0.671)"/><circle cx="174" cy="81.36000000000001" r="1.6309" fill="rgba(255,255,255,0.3685)"/><circle cx="65.4" cy="172.08" r="1.5243" fill="rgba(255,255,255,0.403)"/><circle cx="276.6" cy="4.14" r="1.0732" fill="rgba(255,255,255,0.746)"/><circle cx="4.2" cy="178.74" r="1.6867999999999999" fill="rgba(255,255,255,0.7384999999999999)"/><circle cx="3" cy="45.900000000000006" r="1.0004" fill="rgba(255,255,255,0.694)"/><circle cx="70.8" cy="108" r="1.6387" fill="rgba(255,255,255,0.4575)"/><circle cx="65.4" cy="6.48" r="0.8483" fill="rgba(255,255,255,0.331)"/><circle cx="81.9" cy="111.42000000000002" r="1.1317" fill="rgba(255,255,255,0.4205)"/><circle cx="195.6" cy="6.120000000000001" r="1.1499000000000001" fill="rgba(255,255,255,0.648)"/><circle cx="0.3" cy="93.42000000000002" r="0.9289000000000001" fill="rgba(255,255,255,0.6759999999999999)"/><circle cx="101.7" cy="28.980000000000004" r="1.2006000000000001" fill="rgba(255,255,255,0.486)"/><circle cx="25.200000000000003" cy="172.08" r="1.1356" fill="rgba(255,255,255,0.4325)"/><rect x="-20.0" y="167.7" width="33.1" height="76.3" fill="rgba(255,255,255,.10)"/><rect x="14.6" y="175.8" width="26.2" height="68.2" fill="rgba(255,255,255,.10)"/><rect x="42.3" y="139.9" width="19.9" height="104.1" fill="rgba(255,255,255,.10)"/><rect x="63.7" y="185.8" width="21.3" height="58.2" fill="rgba(255,255,255,.10)"/><rect x="86.5" y="152.8" width="17.6" height="91.2" fill="rgba(255,255,255,.10)"/><rect x="105.6" y="147.3" width="23.8" height="96.7" fill="rgba(255,255,255,.10)"/><rect x="130.9" y="163.9" width="16.5" height="80.1" fill="rgba(255,255,255,.10)"/><rect x="148.9" y="136.8" width="20.7" height="107.2" fill="rgba(255,255,255,.10)"/><rect x="171.1" y="136.7" width="17.6" height="107.3" fill="rgba(255,255,255,.10)"/><rect x="190.2" y="161.0" width="25.8" height="83.0" fill="rgba(255,255,255,.10)"/><rect x="217.5" y="180.3" width="24.8" height="63.7" fill="rgba(255,255,255,.10)"/><rect x="243.8" y="188.3" width="22.8" height="55.7" fill="rgba(255,255,255,.10)"/><rect x="268.1" y="157.8" width="32.1" height="86.2" fill="rgba(255,255,255,.10)"/><rect x="301.7" y="162.1" width="23.3" height="81.9" fill="rgba(255,255,255,.10)"/><rect x="-20.0" y="195.8" width="15.5" height="93.2" fill="rgba(0,0,0,.35)"/><rect x="-16.0" y="223.8" width="3" height="4" fill="rgba(255,214,120,0.976)"/><rect x="-16.0" y="233.8" width="3" height="4" fill="rgba(255,214,120,0.9239999999999999)"/><rect x="-16.0" y="253.8" width="3" height="4" fill="rgba(255,214,120,0.506)"/><rect x="-3.0" y="188.8" width="21.5" height="100.2" fill="rgba(0,0,0,.35)"/><rect x="1.0" y="196.8" width="3" height="4" fill="rgba(255,214,120,0.921)"/><rect x="9.0" y="196.8" width="3" height="4" fill="rgba(255,214,120,0.7065)"/><rect x="9.0" y="216.8" width="3" height="4" fill="rgba(255,214,120,0.577)"/><rect x="1.0" y="226.8" width="3" height="4" fill="rgba(255,214,120,0.9345)"/><rect x="9.0" y="226.8" width="3" height="4" fill="rgba(255,214,120,0.813)"/><rect x="1.0" y="236.8" width="3" height="4" fill="rgba(255,214,120,0.9239999999999999)"/><rect x="9.0" y="266.8" width="3" height="4" fill="rgba(255,214,120,0.7735000000000001)"/><rect x="19.9" y="210.0" width="30.6" height="79.0" fill="rgba(0,0,0,.35)"/><rect x="39.9" y="218.0" width="3" height="4" fill="rgba(255,214,120,0.521)"/><rect x="23.9" y="228.0" width="3" height="4" fill="rgba(255,214,120,0.9835)"/><rect x="39.9" y="228.0" width="3" height="4" fill="rgba(255,214,120,0.7505)"/><rect x="23.9" y="238.0" width="3" height="4" fill="rgba(255,214,120,0.6505)"/><rect x="39.9" y="238.0" width="3" height="4" fill="rgba(255,214,120,0.9390000000000001)"/><rect x="23.9" y="248.0" width="3" height="4" fill="rgba(255,214,120,0.9975)"/><rect x="52.1" y="144.4" width="20.0" height="144.6" fill="rgba(0,0,0,.35)"/><rect x="56.1" y="152.4" width="3" height="4" fill="rgba(255,214,120,0.881)"/><rect x="64.1" y="152.4" width="3" height="4" fill="rgba(255,214,120,0.774)"/><rect x="56.1" y="162.4" width="3" height="4" fill="rgba(255,214,120,0.9630000000000001)"/><rect x="56.1" y="172.4" width="3" height="4" fill="rgba(255,214,120,0.8634999999999999)"/><rect x="64.1" y="192.4" width="3" height="4" fill="rgba(255,214,120,0.5665)"/><rect x="56.1" y="222.4" width="3" height="4" fill="rgba(255,214,120,0.6965)"/><rect x="64.1" y="222.4" width="3" height="4" fill="rgba(255,214,120,0.7335)"/><rect x="64.1" y="232.4" width="3" height="4" fill="rgba(255,214,120,0.9685)"/><rect x="56.1" y="242.4" width="3" height="4" fill="rgba(255,214,120,0.9815)"/><rect x="64.1" y="242.4" width="3" height="4" fill="rgba(255,214,120,0.711)"/><rect x="56.1" y="262.4" width="3" height="4" fill="rgba(255,214,120,0.843)"/><rect x="56.1" y="272.4" width="3" height="4" fill="rgba(255,214,120,0.621)"/><rect x="64.1" y="272.4" width="3" height="4" fill="rgba(255,214,120,0.5525)"/><rect x="73.6" y="182.7" width="23.7" height="106.3" fill="rgba(0,0,0,.35)"/><rect x="77.6" y="190.7" width="3" height="4" fill="rgba(255,214,120,0.881)"/><rect x="85.6" y="210.7" width="3" height="4" fill="rgba(255,214,120,0.527)"/><rect x="85.6" y="220.7" width="3" height="4" fill="rgba(255,214,120,0.6705)"/><rect x="77.6" y="230.7" width="3" height="4" fill="rgba(255,214,120,0.9375)"/><rect x="77.6" y="240.7" width="3" height="4" fill="rgba(255,214,120,0.9215)"/><rect x="85.6" y="250.7" width="3" height="4" fill="rgba(255,214,120,0.8029999999999999)"/><rect x="77.6" y="270.7" width="3" height="4" fill="rgba(255,214,120,0.6145)"/><rect x="98.8" y="159.8" width="16.3" height="129.2" fill="rgba(0,0,0,.35)"/><rect x="102.8" y="177.8" width="3" height="4" fill="rgba(255,214,120,0.5455)"/><rect x="102.8" y="197.8" width="3" height="4" fill="rgba(255,214,120,0.946)"/><rect x="102.8" y="217.8" width="3" height="4" fill="rgba(255,214,120,0.6445)"/><rect x="102.8" y="227.8" width="3" height="4" fill="rgba(255,214,120,0.7495)"/><rect x="102.8" y="247.8" width="3" height="4" fill="rgba(255,214,120,0.704)"/><rect x="102.8" y="257.8" width="3" height="4" fill="rgba(255,214,120,0.8340000000000001)"/><rect x="102.8" y="267.8" width="3" height="4" fill="rgba(255,214,120,0.71)"/><rect x="116.6" y="194.8" width="21.3" height="94.2" fill="rgba(0,0,0,.35)"/><rect x="120.6" y="232.8" width="3" height="4" fill="rgba(255,214,120,0.9435)"/><rect x="120.6" y="242.8" width="3" height="4" fill="rgba(255,214,120,0.8375)"/><rect x="120.6" y="252.8" width="3" height="4" fill="rgba(255,214,120,0.7325)"/><rect x="120.6" y="262.8" width="3" height="4" fill="rgba(255,214,120,0.524)"/><rect x="139.4" y="162.4" width="30.9" height="126.6" fill="rgba(0,0,0,.35)"/><rect x="159.4" y="170.4" width="3" height="4" fill="rgba(255,214,120,0.921)"/><rect x="151.4" y="180.4" width="3" height="4" fill="rgba(255,214,120,0.6605)"/><rect x="159.4" y="180.4" width="3" height="4" fill="rgba(255,214,120,0.513)"/><rect x="151.4" y="200.4" width="3" height="4" fill="rgba(255,214,120,0.991)"/><rect x="143.4" y="210.4" width="3" height="4" fill="rgba(255,214,120,0.732)"/><rect x="159.4" y="210.4" width="3" height="4" fill="rgba(255,214,120,0.6555)"/><rect x="151.4" y="220.4" width="3" height="4" fill="rgba(255,214,120,0.9964999999999999)"/><rect x="143.4" y="230.4" width="3" height="4" fill="rgba(255,214,120,0.9585)"/><rect x="151.4" y="230.4" width="3" height="4" fill="rgba(255,214,120,0.9239999999999999)"/><rect x="159.4" y="230.4" width="3" height="4" fill="rgba(255,214,120,0.8155)"/><rect x="151.4" y="250.4" width="3" height="4" fill="rgba(255,214,120,0.596)"/><rect x="143.4" y="260.4" width="3" height="4" fill="rgba(255,214,120,0.8915)"/><rect x="171.8" y="161.2" width="20.3" height="127.8" fill="rgba(0,0,0,.35)"/><rect x="175.8" y="169.2" width="3" height="4" fill="rgba(255,214,120,0.7364999999999999)"/><rect x="183.8" y="169.2" width="3" height="4" fill="rgba(255,214,120,0.9455)"/><rect x="175.8" y="199.2" width="3" height="4" fill="rgba(255,214,120,0.9635)"/><rect x="183.8" y="199.2" width="3" height="4" fill="rgba(255,214,120,0.837)"/><rect x="175.8" y="209.2" width="3" height="4" fill="rgba(255,214,120,0.987)"/><rect x="183.8" y="219.2" width="3" height="4" fill="rgba(255,214,120,0.745)"/><rect x="175.8" y="239.2" width="3" height="4" fill="rgba(255,214,120,0.9215)"/><rect x="183.8" y="239.2" width="3" height="4" fill="rgba(255,214,120,0.6505)"/><rect x="175.8" y="249.2" width="3" height="4" fill="rgba(255,214,120,0.521)"/><rect x="183.8" y="249.2" width="3" height="4" fill="rgba(255,214,120,0.585)"/><rect x="175.8" y="259.2" width="3" height="4" fill="rgba(255,214,120,0.5435)"/><rect x="183.8" y="269.2" width="3" height="4" fill="rgba(255,214,120,0.94)"/><rect x="193.6" y="175.2" width="15.4" height="113.8" fill="rgba(0,0,0,.35)"/><rect x="197.6" y="203.2" width="3" height="4" fill="rgba(255,214,120,0.9)"/><rect x="197.6" y="213.2" width="3" height="4" fill="rgba(255,214,120,0.505)"/><rect x="197.6" y="223.2" width="3" height="4" fill="rgba(255,214,120,0.98)"/><rect x="197.6" y="253.2" width="3" height="4" fill="rgba(255,214,120,0.9285)"/><rect x="197.6" y="263.2" width="3" height="4" fill="rgba(255,214,120,0.8565)"/><rect x="210.5" y="162.5" width="27.1" height="126.5" fill="rgba(0,0,0,.35)"/><rect x="214.5" y="170.5" width="3" height="4" fill="rgba(255,214,120,0.616)"/><rect x="214.5" y="180.5" width="3" height="4" fill="rgba(255,214,120,0.7869999999999999)"/><rect x="230.5" y="180.5" width="3" height="4" fill="rgba(255,214,120,0.8545)"/><rect x="214.5" y="190.5" width="3" height="4" fill="rgba(255,214,120,0.9325)"/><rect x="222.5" y="190.5" width="3" height="4" fill="rgba(255,214,120,0.6675)"/><rect x="230.5" y="200.5" width="3" height="4" fill="rgba(255,214,120,0.8935)"/><rect x="214.5" y="220.5" width="3" height="4" fill="rgba(255,214,120,0.6795)"/><rect x="222.5" y="230.5" width="3" height="4" fill="rgba(255,214,120,0.781)"/><rect x="214.5" y="240.5" width="3" height="4" fill="rgba(255,214,120,0.554)"/><rect x="230.5" y="250.5" width="3" height="4" fill="rgba(255,214,120,0.9784999999999999)"/><rect x="230.5" y="260.5" width="3" height="4" fill="rgba(255,214,120,0.843)"/><rect x="214.5" y="270.5" width="3" height="4" fill="rgba(255,214,120,0.507)"/><rect x="239.0" y="159.6" width="25.4" height="129.4" fill="rgba(0,0,0,.35)"/><rect x="243.0" y="177.6" width="3" height="4" fill="rgba(255,214,120,0.8375)"/><rect x="259.0" y="177.6" width="3" height="4" fill="rgba(255,214,120,0.6365000000000001)"/><rect x="243.0" y="187.6" width="3" height="4" fill="rgba(255,214,120,0.9075)"/><rect x="259.0" y="187.6" width="3" height="4" fill="rgba(255,214,120,0.8885000000000001)"/><rect x="243.0" y="197.6" width="3" height="4" fill="rgba(255,214,120,0.708)"/><rect x="251.0" y="197.6" width="3" height="4" fill="rgba(255,214,120,0.651)"/><rect x="259.0" y="217.6" width="3" height="4" fill="rgba(255,214,120,0.825)"/><rect x="259.0" y="237.6" width="3" height="4" fill="rgba(255,214,120,0.714)"/><rect x="251.0" y="247.6" width="3" height="4" fill="rgba(255,214,120,0.6515)"/><rect x="259.0" y="257.6" width="3" height="4" fill="rgba(255,214,120,0.7085)"/><rect x="251.0" y="267.6" width="3" height="4" fill="rgba(255,214,120,0.851)"/><rect x="265.9" y="162.5" width="15.4" height="126.5" fill="rgba(0,0,0,.35)"/><rect x="269.9" y="170.5" width="3" height="4" fill="rgba(255,214,120,0.58)"/><rect x="269.9" y="220.5" width="3" height="4" fill="rgba(255,214,120,0.851)"/><rect x="269.9" y="250.5" width="3" height="4" fill="rgba(255,214,120,0.944)"/><rect x="282.8" y="154.1" width="16.7" height="134.9" fill="rgba(0,0,0,.35)"/><rect x="286.8" y="172.1" width="3" height="4" fill="rgba(255,214,120,0.763)"/><rect x="286.8" y="182.1" width="3" height="4" fill="rgba(255,214,120,0.6135)"/><rect x="286.8" y="252.1" width="3" height="4" fill="rgba(255,214,120,0.9185)"/><rect x="301.1" y="195.6" width="18.0" height="93.4" fill="rgba(0,0,0,.35)"/><rect x="305.1" y="203.6" width="3" height="4" fill="rgba(255,214,120,0.879)"/><rect x="313.1" y="203.6" width="3" height="4" fill="rgba(255,214,120,0.9510000000000001)"/><rect x="305.1" y="223.6" width="3" height="4" fill="rgba(255,214,120,0.7865)"/><rect x="313.1" y="223.6" width="3" height="4" fill="rgba(255,214,120,0.8165)"/><rect x="313.1" y="243.6" width="3" height="4" fill="rgba(255,214,120,0.6305000000000001)"/><rect x="305.1" y="263.6" width="3" height="4" fill="rgba(255,214,120,0.989)"/><rect x="-20.0" y="186.3" width="31.9" height="156.7" fill="rgba(0,0,0,.72)"/><rect x="-16.0" y="194.3" width="3" height="4" fill="rgba(255,214,120,0.997)"/><rect x="-8.0" y="204.3" width="3" height="4" fill="rgba(255,214,120,0.5065)"/><rect x="0.0" y="224.3" width="3" height="4" fill="rgba(255,214,120,0.865)"/><rect x="-8.0" y="234.3" width="3" height="4" fill="rgba(255,214,120,0.635)"/><rect x="0.0" y="234.3" width="3" height="4" fill="rgba(255,214,120,0.7215)"/><rect x="-16.0" y="244.3" width="3" height="4" fill="rgba(255,214,120,0.709)"/><rect x="-8.0" y="254.3" width="3" height="4" fill="rgba(255,214,120,0.726)"/><rect x="0.0" y="254.3" width="3" height="4" fill="rgba(255,214,120,0.7795000000000001)"/><rect x="-8.0" y="274.3" width="3" height="4" fill="rgba(255,214,120,0.7575000000000001)"/><rect x="-8.0" y="284.3" width="3" height="4" fill="rgba(255,214,120,0.5755)"/><rect x="0.0" y="284.3" width="3" height="4" fill="rgba(255,214,120,0.8140000000000001)"/><rect x="-16.0" y="304.3" width="3" height="4" fill="rgba(255,214,120,0.655)"/><rect x="0.0" y="304.3" width="3" height="4" fill="rgba(255,214,120,0.8625)"/><rect x="0.0" y="314.3" width="3" height="4" fill="rgba(255,214,120,0.9045000000000001)"/><rect x="13.4" y="223.2" width="16.7" height="119.8" fill="rgba(0,0,0,.72)"/><rect x="17.4" y="231.2" width="3" height="4" fill="rgba(255,214,120,0.9490000000000001)"/><rect x="17.4" y="251.2" width="3" height="4" fill="rgba(255,214,120,0.562)"/><rect x="17.4" y="261.2" width="3" height="4" fill="rgba(255,214,120,0.625)"/><rect x="17.4" y="271.2" width="3" height="4" fill="rgba(255,214,120,0.9650000000000001)"/><rect x="17.4" y="281.2" width="3" height="4" fill="rgba(255,214,120,0.847)"/><rect x="17.4" y="311.2" width="3" height="4" fill="rgba(255,214,120,0.9119999999999999)"/><rect x="17.4" y="321.2" width="3" height="4" fill="rgba(255,214,120,0.7575000000000001)"/><rect x="31.6" y="215.4" width="34.7" height="127.6" fill="rgba(0,0,0,.72)"/><rect x="51.6" y="223.4" width="3" height="4" fill="rgba(255,214,120,0.8320000000000001)"/><rect x="59.6" y="223.4" width="3" height="4" fill="rgba(255,214,120,0.8145)"/><rect x="35.6" y="233.4" width="3" height="4" fill="rgba(255,214,120,0.711)"/><rect x="35.6" y="243.4" width="3" height="4" fill="rgba(255,214,120,0.6265000000000001)"/><rect x="59.6" y="243.4" width="3" height="4" fill="rgba(255,214,120,0.6775)"/><rect x="35.6" y="253.4" width="3" height="4" fill="rgba(255,214,120,0.5045)"/><rect x="59.6" y="253.4" width="3" height="4" fill="rgba(255,214,120,0.9119999999999999)"/><rect x="35.6" y="273.4" width="3" height="4" fill="rgba(255,214,120,0.75)"/><rect x="51.6" y="273.4" width="3" height="4" fill="rgba(255,214,120,0.8745)"/><rect x="59.6" y="273.4" width="3" height="4" fill="rgba(255,214,120,0.7165)"/><rect x="35.6" y="283.4" width="3" height="4" fill="rgba(255,214,120,0.7835)"/><rect x="43.6" y="313.4" width="3" height="4" fill="rgba(255,214,120,0.6234999999999999)"/><rect x="35.6" y="323.4" width="3" height="4" fill="rgba(255,214,120,0.9485)"/><rect x="67.9" y="225.9" width="17.1" height="117.1" fill="rgba(0,0,0,.72)"/><rect x="71.9" y="233.9" width="3" height="4" fill="rgba(255,214,120,0.5665)"/><rect x="71.9" y="243.9" width="3" height="4" fill="rgba(255,214,120,0.894)"/><rect x="79.9" y="273.9" width="3" height="4" fill="rgba(255,214,120,0.9035)"/><rect x="79.9" y="283.9" width="3" height="4" fill="rgba(255,214,120,0.5125)"/><rect x="71.9" y="293.9" width="3" height="4" fill="rgba(255,214,120,0.7055)"/><rect x="86.4" y="197.5" width="23.6" height="145.5" fill="rgba(0,0,0,.72)"/><rect x="98.4" y="205.5" width="3" height="4" fill="rgba(255,214,120,0.985)"/><rect x="90.4" y="215.5" width="3" height="4" fill="rgba(255,214,120,0.7384999999999999)"/><rect x="98.4" y="235.5" width="3" height="4" fill="rgba(255,214,120,0.5995)"/><rect x="98.4" y="265.5" width="3" height="4" fill="rgba(255,214,120,0.9295)"/><rect x="98.4" y="275.5" width="3" height="4" fill="rgba(255,214,120,0.9435)"/><rect x="90.4" y="295.5" width="3" height="4" fill="rgba(255,214,120,0.8365)"/><rect x="98.4" y="325.5" width="3" height="4" fill="rgba(255,214,120,0.843)"/><rect x="111.5" y="246.5" width="30.4" height="96.5" fill="rgba(0,0,0,.72)"/><rect x="115.5" y="254.5" width="3" height="4" fill="rgba(255,214,120,0.571)"/><rect x="131.5" y="254.5" width="3" height="4" fill="rgba(255,214,120,0.5705)"/><rect x="115.5" y="264.5" width="3" height="4" fill="rgba(255,214,120,0.862)"/><rect x="123.5" y="264.5" width="3" height="4" fill="rgba(255,214,120,0.609)"/><rect x="123.5" y="274.5" width="3" height="4" fill="rgba(255,214,120,0.9590000000000001)"/><rect x="115.5" y="284.5" width="3" height="4" fill="rgba(255,214,120,0.529)"/><rect x="115.5" y="294.5" width="3" height="4" fill="rgba(255,214,120,0.7315)"/><rect x="115.5" y="314.5" width="3" height="4" fill="rgba(255,214,120,0.8325)"/><rect x="115.5" y="324.5" width="3" height="4" fill="rgba(255,214,120,0.6685)"/><rect x="123.5" y="324.5" width="3" height="4" fill="rgba(255,214,120,0.7695000000000001)"/><rect x="143.4" y="199.0" width="28.1" height="144.0" fill="rgba(0,0,0,.72)"/><rect x="147.4" y="207.0" width="3" height="4" fill="rgba(255,214,120,0.534)"/><rect x="147.4" y="217.0" width="3" height="4" fill="rgba(255,214,120,0.7665)"/><rect x="155.4" y="237.0" width="3" height="4" fill="rgba(255,214,120,0.751)"/><rect x="147.4" y="247.0" width="3" height="4" fill="rgba(255,214,120,0.7935)"/><rect x="155.4" y="247.0" width="3" height="4" fill="rgba(255,214,120,0.5735)"/><rect x="163.4" y="257.0" width="3" height="4" fill="rgba(255,214,120,0.9425)"/><rect x="155.4" y="277.0" width="3" height="4" fill="rgba(255,214,120,0.775)"/><rect x="163.4" y="277.0" width="3" height="4" fill="rgba(255,214,120,0.669)"/><rect x="147.4" y="287.0" width="3" height="4" fill="rgba(255,214,120,0.52)"/><rect x="147.4" y="297.0" width="3" height="4" fill="rgba(255,214,120,0.9295)"/><rect x="155.4" y="297.0" width="3" height="4" fill="rgba(255,214,120,0.9045000000000001)"/><rect x="163.4" y="297.0" width="3" height="4" fill="rgba(255,214,120,0.802)"/><rect x="155.4" y="307.0" width="3" height="4" fill="rgba(255,214,120,0.582)"/><rect x="147.4" y="327.0" width="3" height="4" fill="rgba(255,214,120,0.511)"/><rect x="173.0" y="175.5" width="21.3" height="167.5" fill="rgba(0,0,0,.72)"/><rect x="177.0" y="183.5" width="3" height="4" fill="rgba(255,214,120,0.5405)"/><rect x="185.0" y="183.5" width="3" height="4" fill="rgba(255,214,120,0.544)"/><rect x="177.0" y="193.5" width="3" height="4" fill="rgba(255,214,120,0.958)"/><rect x="177.0" y="213.5" width="3" height="4" fill="rgba(255,214,120,0.858)"/><rect x="185.0" y="213.5" width="3" height="4" fill="rgba(255,214,120,0.5195)"/><rect x="185.0" y="233.5" width="3" height="4" fill="rgba(255,214,120,0.6825)"/><rect x="185.0" y="243.5" width="3" height="4" fill="rgba(255,214,120,0.508)"/><rect x="185.0" y="253.5" width="3" height="4" fill="rgba(255,214,120,0.9139999999999999)"/><rect x="177.0" y="273.5" width="3" height="4" fill="rgba(255,214,120,0.977)"/><rect x="177.0" y="283.5" width="3" height="4" fill="rgba(255,214,120,0.749)"/><rect x="185.0" y="283.5" width="3" height="4" fill="rgba(255,214,120,0.8605)"/><rect x="185.0" y="293.5" width="3" height="4" fill="rgba(255,214,120,0.9450000000000001)"/><rect x="195.9" y="238.8" width="22.9" height="104.2" fill="rgba(0,0,0,.72)"/><rect x="199.9" y="246.8" width="3" height="4" fill="rgba(255,214,120,0.9545)"/><rect x="199.9" y="256.8" width="3" height="4" fill="rgba(255,214,120,0.9075)"/><rect x="207.9" y="256.8" width="3" height="4" fill="rgba(255,214,120,0.656)"/><rect x="199.9" y="266.8" width="3" height="4" fill="rgba(255,214,120,0.935)"/><rect x="207.9" y="266.8" width="3" height="4" fill="rgba(255,214,120,0.8845000000000001)"/><rect x="207.9" y="276.8" width="3" height="4" fill="rgba(255,214,120,0.994)"/><rect x="207.9" y="286.8" width="3" height="4" fill="rgba(255,214,120,0.8049999999999999)"/><rect x="199.9" y="296.8" width="3" height="4" fill="rgba(255,214,120,0.51)"/><rect x="220.3" y="194.3" width="22.4" height="148.7" fill="rgba(0,0,0,.72)"/><rect x="224.3" y="212.3" width="3" height="4" fill="rgba(255,214,120,0.6635)"/><rect x="232.3" y="232.3" width="3" height="4" fill="rgba(255,214,120,0.517)"/><rect x="232.3" y="242.3" width="3" height="4" fill="rgba(255,214,120,0.709)"/><rect x="224.3" y="252.3" width="3" height="4" fill="rgba(255,214,120,0.6845)"/><rect x="224.3" y="272.3" width="3" height="4" fill="rgba(255,214,120,0.782)"/><rect x="232.3" y="282.3" width="3" height="4" fill="rgba(255,214,120,0.9359999999999999)"/><rect x="232.3" y="292.3" width="3" height="4" fill="rgba(255,214,120,0.5955)"/><rect x="232.3" y="302.3" width="3" height="4" fill="rgba(255,214,120,0.8725)"/><rect x="244.1" y="248.5" width="18.7" height="94.5" fill="rgba(0,0,0,.72)"/><rect x="248.1" y="266.5" width="3" height="4" fill="rgba(255,214,120,0.755)"/><rect x="256.1" y="316.5" width="3" height="4" fill="rgba(255,214,120,0.7855)"/><rect x="248.1" y="326.5" width="3" height="4" fill="rgba(255,214,120,0.894)"/><rect x="264.4" y="233.4" width="17.2" height="109.6" fill="rgba(0,0,0,.72)"/><rect x="268.4" y="241.4" width="3" height="4" fill="rgba(255,214,120,0.64)"/><rect x="268.4" y="251.4" width="3" height="4" fill="rgba(255,214,120,0.991)"/><rect x="276.4" y="261.4" width="3" height="4" fill="rgba(255,214,120,0.969)"/><rect x="276.4" y="281.4" width="3" height="4" fill="rgba(255,214,120,0.6315)"/><rect x="276.4" y="291.4" width="3" height="4" fill="rgba(255,214,120,0.7905)"/><rect x="276.4" y="301.4" width="3" height="4" fill="rgba(255,214,120,0.78)"/><rect x="268.4" y="311.4" width="3" height="4" fill="rgba(255,214,120,0.5675)"/><rect x="276.4" y="311.4" width="3" height="4" fill="rgba(255,214,120,0.948)"/><rect x="283.1" y="229.2" width="28.0" height="113.8" fill="rgba(0,0,0,.72)"/><rect x="303.1" y="237.2" width="3" height="4" fill="rgba(255,214,120,0.5105)"/><rect x="287.1" y="247.2" width="3" height="4" fill="rgba(255,214,120,0.778)"/><rect x="295.1" y="257.2" width="3" height="4" fill="rgba(255,214,120,0.9695)"/><rect x="287.1" y="267.2" width="3" height="4" fill="rgba(255,214,120,0.852)"/><rect x="287.1" y="277.2" width="3" height="4" fill="rgba(255,214,120,0.5165)"/><rect x="287.1" y="307.2" width="3" height="4" fill="rgba(255,214,120,0.7849999999999999)"/><rect x="303.1" y="307.2" width="3" height="4" fill="rgba(255,214,120,0.5115)"/><rect x="312.6" y="233.2" width="33.4" height="109.8" fill="rgba(0,0,0,.72)"/><rect x="316.6" y="241.2" width="3" height="4" fill="rgba(255,214,120,0.5465)"/><rect x="316.6" y="261.2" width="3" height="4" fill="rgba(255,214,120,0.6415)"/><rect x="316.6" y="271.2" width="3" height="4" fill="rgba(255,214,120,0.6905)"/><rect x="332.6" y="271.2" width="3" height="4" fill="rgba(255,214,120,0.6445)"/><rect x="340.6" y="271.2" width="3" height="4" fill="rgba(255,214,120,0.722)"/><rect x="316.6" y="281.2" width="3" height="4" fill="rgba(255,214,120,0.989)"/><rect x="332.6" y="281.2" width="3" height="4" fill="rgba(255,214,120,0.5685)"/><rect x="316.6" y="301.2" width="3" height="4" fill="rgba(255,214,120,0.5375)"/><rect x="324.6" y="301.2" width="3" height="4" fill="rgba(255,214,120,0.8775)"/><rect x="332.6" y="301.2" width="3" height="4" fill="rgba(255,214,120,0.549)"/><rect x="340.6" y="301.2" width="3" height="4" fill="rgba(255,214,120,0.584)"/><rect x="324.6" y="321.2" width="3" height="4" fill="rgba(255,214,120,0.5225)"/><rect x="332.6" y="321.2" width="3" height="4" fill="rgba(255,214,120,0.8300000000000001)"/><rect x="340.6" y="321.2" width="3" height="4" fill="rgba(255,214,120,0.8285)"/><ellipse cx="97.8" cy="324" rx="120" ry="22.5" fill="rgba(255,255,255,.06)"/><ellipse cx="35.699999999999996" cy="346.5" rx="120" ry="22.5" fill="rgba(255,255,255,.06)"/><ellipse cx="171.89999999999998" cy="369" rx="120" ry="22.5" fill="rgba(255,255,255,.06)"/><ellipse cx="273.90000000000003" cy="391.5" rx="120" ry="22.5" fill="rgba(255,255,255,.06)"/></g><rect width="300" height="450" fill="url(#vig)"/><text x="150" y="241" text-anchor="middle" font-family="Poppins, Arial, sans-serif" font-weight="700" font-size="29" fill="#fff" style="paint-order:stroke" stroke="rgba(0,0,0,.55)" stroke-width="7">Kolkata</text><text x="150" y="276" text-anchor="middle" font-family="Poppins, Arial, sans-serif" font-weight="700" font-size="29" fill="#fff" style="paint-order:stroke" stroke="rgba(0,0,0,.55)" stroke-width="7">Underground</text><rect x="104" y="342" width="92" height="26" rx="13" fill="rgba(0,0,0,.65)"/><text x="150" y="360" text-anchor="middle" font-family="Poppins, Arial, sans-serif" font-weight="600" font-size="13" fill="#fff">2024 • 720p</text><text x="150" y="404" text-anchor="middle" font-family="Poppins, Arial, sans-serif" font-weight="700" font-size="12" letter-spacing="3" fill="rgba(255,255,255,.8)">MOVIEBAZAR</text><rect x="7" y="14" width="9" height="13" rx="3" fill="rgba(0,0,0,.5)"/><rect x="7" y="40" width="9" height="13" rx="3" fill="rgba(0,0,0,.5)"/><rect x="7" y="66" width="9" height="13" rx="3" fill="rgba(0,0,0,.5)"/><rect x="7" y="92" width="9" height="13" rx="3" fill="rgba(0,0,0,.5)"/><rect x="7" y="118" width="9" height="13" rx="3" fill="rgba(0,0,0,.5)"/><rect x="7" y="144" width="9" height="13" rx="3" fill="rgba(0,0,0,.5)"/><rect x="7" y="170" width="9" height="13" rx="3" fill="rgba(0,0,0,.5)"/><rect x="7" y="196" width="9" height="13" rx="3" fill="rgba(0,0,0,.5)"/><rect x="7" y="222" width="9" height="13" rx="3" fill="rgba(0,0,0,.5)"/><rect x="7" y="248" width="9" height="13" rx="3" fill="rgba(0,0,0,.5)"/><rect x="7" y="274" width="9" height="13" rx="3" fill="rgba(0,0,0,.5)"/><rect x="7" y="300" width="9" height="13" rx="3" fill="rgba(0,0,0,.5)"/><rect x="7" y="326" width="9" height="13" rx="3" fill="rgba(0,0,0,.5)"/><rect x="7" y="352" width="9" height="13" rx="3" fill="rgba(0,0,0,.5)"/><rect x="7" y="378" width="9" height="13" rx="3" fill="rgba(0,0,0,.5)"/><rect x="7" y="404" width="9" height="13" rx="3" fill="rgba(0,0,0,.5)"/><rect x="284" y="14" width="9" height="13" rx="3" fill="rgba(0,0,0,.5)"/><rect x="284" y="40" width="9" height="13" rx="3" fill="rgba(0,0,0,.5)"/><rect x="284" y="66" width="9" height="13" rx="3" fill="rgba(0,0,0,.5)"/><rect x="284" y="92" width="9" height="13" rx="3" fill="rgba(0,0,0,.5)"/><rect x="284" y="118" width="9" height="13" rx="3" fill="rgba(0,0,0,.5)"/><rect x="284" y="144" width="9" height="13" rx="3" fill="rgba(0,0,0,.5)"/><rect x="284" y="170" width="9" height="13" rx="3" fill="rgba(0,0,0,.5)"/><rect x="284" y="196" width="9" height="13" rx="3" fill="rgba(0,0,0,.5)"/><rect x="284" y="222" width="9" height="13" rx="3" fill="rgba(0,0,0,.5)"/><rect x="284" y="248" width="9" height="13" rx="3" fill="rgba(0,0,0,.5)"/><rect x="284" y="274" width="9" height="13" rx="3" fill="rgba(0,0,0,.5)"/><rect x="284" y="300" width="9" height="13" rx="3" fill="rgba(0,0,0,.5)"/><rect x="284" y="326" width="9" height="13" rx="3" fill="rgba(0,0,0,.5)"/><rect x="284" y="352" width="9" height="13" rx="3" fill="rgba(0,0,0,.5)"/><rect x="284" y="378" width="9" height="13" rx="3" fill="rgba(0,0,0,.5)"/><rect x="284" y="404" width="9" height="13" rx="3" fill="rgba(0,0,0,.5)"/><rect width="300" height="450" filter="url(#grain)" opacity=".5"/></svg>