<svg xmlns="http://www.w3.org/2000/svg" width="1280" height="720" viewBox="0 0 1280 720"><defs><linearGradient id="sky" x1="0" y1="0" x2="0" y2="1"><stop offset="0" stop-color="#101d3d"/><stop offset="0.55" stop-color="#4b6cb7"/><stop offset="1" stop-color="#101d3d"/></linearGradient><radialGradient id="glow"><stop offset="0" stop-color="rgba(255,255,255,.55)"/><stop offset="1" stop-color="rgba(255,255,255,0)"/></radialGradient><linearGradient id="sea" x1="0" y1="0" x2="0" y2="1"><stop offset="0" stop-color="#4b6cb7"/><stop offset="1" stop-color="#101d3d"/></linearGradient><radialGradient id="planet"><stop offset="0" stop-color="#4b6cb7"/><stop offset="1" stop-color="#101d3d"/></radialGradient><linearGradient id="track" x1="0" y1="0" x2="0" y2="1"><stop offset="0" stop-color="#8c2b23"/><stop offset="1" stop-color="#4a1410"/></linearGradient><linearGradient id="bw" x1="0" y1="0" x2="0" y2="1"><stop offset="0" stop-color="#d8d8d8"/><stop offset="1" stop-color="#2a2a2a"/></linearGradient><linearGradient id="vig" x1="0" y1="0" x2="0" y2="1"><stop offset="0" stop-color="rgba(0,0,0,.45)"/><stop offset="0.35" stop-color="rgba(0,0,0,0)"/><stop offset="0.72" stop-color="rgba(0,0,0,.55)"/><stop offset="1" stop-color="rgba(0,0,0,.92)"/></linearGradient><filter id="grain"><feTurbulence type="fractalNoise" baseFrequency="0.9" numOctaves="2" stitchTiles="stitch"/><feColorMatrix type="saturate" values="0"/><feComponentTransfer><feFuncA type="linear" slope="0.06"/></feComponentTransfer></filter></defs><g><rect width="1280" height="720" fill="url(#sky)"/><circle cx="889.5999999999999" cy="338.03999999999996" r="1.2528000000000001" fill="rgba(255,255,255,0.7045)"/><circle cx="852.48" cy="330.48" r="0.7992" fill="rgba(255,255,255,0.7989999999999999)"/><circle cx="943.36" cy="246.24" r="1.3332" fill="rgba(255,255,255,0.5735)"/><circle cx="1039.3600000000001" cy="71.64" r="0.8748" fill="rgba(255,255,255,0.7785)"/><circle cx="1277.44" cy="204.11999999999998" r="1.4352" fill="rgba(255,255,255,0.548)"/><circle cx="1091.84" cy="100.80000000000001" r="0.9192" fill="rgba(255,255,255,0.522)"/><circle cx="819.2" cy="170.28" r="0.6288" fill="rgba(255,255,255,0.4755)"/><circle cx="24.32" cy="137.88" r="0.6444" fill="rgba(255,255,255,0.739)"/><circle cx="495.36" cy="346.68" r="1.0908" fill="rgba(255,255,255,0.3775)"/><circle cx="399.36" cy="272.52" r="1.2923999999999998" fill="rgba(255,255,255,0.314)"/><circle cx="126.72" cy="207.71999999999997" r="1.3632" fill="rgba(255,255,255,0.5775)"/><circle cx="734.7199999999999" cy="270" r="0.7752" fill="rgba(255,255,255,0.7030000000000001)"/><circle cx="838.4000000000001" cy="279.72" r="0.9792" fill="rgba(255,255,255,0.567)"/><circle cx="656.64" cy="309.24" r="1.6427999999999998" fill="rgba(255,255,255,0.358)"/><circle cx="805.12" cy="149.76" r="1.6151999999999997" fill="rgba(255,255,255,0.696)"/><circle cx="1040.6399999999999" cy="328.32" r="1.3163999999999998" fill="rgba(255,255,255,0.36)"/><circle cx="578.5600000000001" cy="268.56" r="1.1520000000000001" fill="rgba(255,255,255,0.3045)"/><circle cx="1079.04" cy="148.67999999999998" r="1.0032" fill="rgba(255,255,255,0.3765)"/><circle cx="107.52000000000001" cy="241.56" r="1.4112" fill="rgba(255,255,255,0.5175)"/><circle cx="930.56" cy="13.68" r="1.4988" fill="rgba(255,255,255,0.301)"/><circle cx="753.92" cy="211.67999999999998" r="1.272" fill="rgba(255,255,255,0.357)"/><circle cx="565.76" cy="60.480000000000004" r="1.1183999999999998" fill="rgba(255,255,255,0.743)"/><circle cx="1017.6" cy="51.839999999999996" r="1.3548" fill="rgba(255,255,255,0.707)"/><circle cx="902.4" cy="38.88" r="1.3488" fill="rgba(255,255,255,0.615)"/><circle cx="811.52" cy="95.76" r="0.864" fill="rgba(255,255,255,0.34149999999999997)"/><circle cx="271.36" cy="241.20000000000002" r="1.7376" fill="rgba(255,255,255,0.3465)"/><circle cx="761.5999999999999" cy="32.76" r="1.2636" fill="rgba(255,255,255,0.3775)"/><circle cx="929.28" cy="335.16" r="1.266" fill="rgba(255,255,255,0.604)"/><circle cx="761.5999999999999" cy="291.6" r="1.5588" fill="rgba(255,255,255,0.7384999999999999)"/><circle cx="90.88" cy="80.28" r="0.6335999999999999" fill="rgba(255,255,255,0.5295)"/><circle cx="416" cy="324" r="1.6320000000000001" fill="rgba(255,255,255,0.6485)"/><circle cx="111.35999999999999" cy="105.83999999999999" r="1.1976" fill="rgba(255,255,255,0.3705)"/><circle cx="556.8" cy="204.48" r="1.5564" fill="rgba(255,255,255,0.556)"/><circle cx="291.84000000000003" cy="334.8" r="1.7376" fill="rgba(255,255,255,0.7795)"/><circle cx="896" cy="129.6" r="64" fill="rgba(255,255,255,.92)"/><circle cx="896" cy="129.6" r="153.6" fill="url(#glow)"/><path d="M0 720 L0 432 L152.0 290.6 L304.1 425.9 L438.9 354.5 L573.7 440.3 L718.2 331.2 L862.6 427.7 L991.6 326.2 L1120.6 429.1 L1237.1 377.1 L1353.6 424.6 L1280 720 Z" fill="rgba(0,0,0,.30)"/><ellipse cx="640" cy="444" rx="768" ry="25.200000000000003" fill="rgba(255,255,255,.14)"/><path d="M0 720 L0 518.4 L136.2 337.4 L272.4 518.7 L426.0 430.7 L579.6 518.0 L739.4 364.2 L899.2 525.1 L1017.8 378.8 L1136.4 516.1 L1276.0 342.5 L1415.6 513.1 L1280 720 Z" fill="rgba(0,0,0,.55)"/><ellipse cx="640" cy="530.4" rx="768" ry="25.200000000000003" fill="rgba(255,255,255,.14)"/><path d="M0 720 L0 619.2 L94.4 441.8 L188.7 611.8 L316.9 515.7 L445.0 615.8 L599.1 496.7 L753.1 628.5 L848.7 536.9 L944.3 624.2 L1064.2 504.1 L1184.2 615.5 L1334.9 454.0 L1485.6 613.3 L1280 720 Z" fill="rgba(0,0,0,.85)"/><g fill="rgba(0,0,0,.92)" transform="translate(435.20000000000005 432) scale(4.266666666666667)"><ellipse cx="0" cy="-78" rx="12" ry="13"/><path d="M-18 -64 q18 -8 36 0 l8 62 h-14 l-3 -26 -8 26 h-8 l-5 -22 -5 22 h-8 l-3 -26 -3 26 h-14z"/></g><g transform="translate(461.20000000000005 336) rotate(18)"><rect x="-2" y="-70" width="4" height="70" fill="rgba(0,0,0,.9)"/><rect x="-10" y="-8" width="20" height="5" rx="2" fill="rgba(0,0,0,.9)"/></g><ellipse cx="455.20000000000005" cy="362" rx="55" ry="85" fill="url(#glow)" opacity=".22"/></g><rect width="1280" height="720" fill="url(#vig)"/><rect width="1280" height="720" filter="url(#grain)" opacity=".45"/></svg>