<svg xmlns="http://www.w3.org/2000/svg" width="1280" height="720" viewBox="0 0 1280 720"><defs><linearGradient id="sky" x1="0" y1="0" x2="0" y2="1"><stop offset="0" stop-color="#3d0a0a"/><stop offset="0.55" stop-color="#232526"/><stop offset="1" stop-color="#3d0a0a"/></linearGradient><radialGradient id="glow"><stop offset="0" stop-color="rgba(255,255,255,.55)"/><stop offset="1" stop-color="rgba(255,255,255,0)"/></radialGradient><linearGradient id="sea" x1="0" y1="0" x2="0" y2="1"><stop offset="0" stop-color="#232526"/><stop offset="1" stop-color="#3d0a0a"/></linearGradient><radialGradient id="planet"><stop offset="0" stop-color="#232526"/><stop offset="1" stop-color="#3d0a0a"/></radialGradient><linearGradient id="track" x1="0" y1="0" x2="0" y2="1"><stop offset="0" stop-color="#8c2b23"/><stop offset="1" stop-color="#4a1410"/></linearGradient><linearGradient id="bw" x1="0" y1="0" x2="0" y2="1"><stop offset="0" stop-color="#d8d8d8"/><stop offset="1" stop-color="#2a2a2a"/></linearGradient><linearGradient id="vig" x1="0" y1="0" x2="0" y2="1"><stop offset="0" stop-color="rgba(0,0,0,.45)"/><stop offset="0.35" stop-color="rgba(0,0,0,0)"/><stop offset="0.72" stop-color="rgba(0,0,0,.55)"/><stop offset="1" stop-color="rgba(0,0,0,.92)"/></linearGradient><filter id="grain"><feTurbulence type="fractalNoise" baseFrequency="0.9" numOctaves="2" stitchTiles="stitch"/><feColorMatrix type="saturate" values="0"/><feComponentTransfer><feFuncA type="linear" slope="0.06"/></feComponentTransfer></filter></defs><g><rect width="1280" height="720" fill="url(#sky)"/><circle cx="793.6" cy="172.79999999999998" r="179.20000000000002" fill="rgba(255,250,235,.95)"/><circle cx="793.6" cy="172.79999999999998" r="376.32000000000005" fill="url(#glow)"/><circle cx="817.2544" cy="262.4" r="34.958336" fill="rgba(180,175,165,.35)"/><circle cx="779.9808" cy="248.95999999999998" r="37.567488000000004" fill="rgba(180,175,165,.35)"/><circle cx="759.7312000000001" cy="163.6608" r="20.808704000000002" fill="rgba(180,175,165,.35)"/><circle cx="827.2896000000001" cy="122.80319999999998" r="31.471104000000004" fill="rgba(180,175,165,.35)"/><circle cx="757.9392" cy="219.03359999999998" r="21.561344000000005" fill="rgba(180,175,165,.35)"/><ellipse cx="901.504" cy="191.88" rx="179.20000000000002" ry="14.4" fill="rgba(0,0,0,.55)"/><ellipse cx="691.456" cy="191.808" rx="179.20000000000002" ry="14.4" fill="rgba(0,0,0,.55)"/><ellipse cx="831.232" cy="173.016" rx="179.20000000000002" ry="14.4" fill="rgba(0,0,0,.55)"/><g fill="rgba(0,0,0,.9)"><rect x="204.8" y="501.6" width="80" height="60"/><polygon points="196.8,501.6 244.8,461.6 292.8,501.6"/><rect x="292.8" y="519.6" width="26" height="42"/><polygon points="288.8,519.6 305.8,495.6 322.8,519.6"/><rect x="240.8" y="523.6" width="12" height="16" fill="rgba(255,200,80,.9)"/><rect x="212.8" y="513.6" width="10" height="12" fill="rgba(255,200,80,.75)"/></g><g stroke="rgba(0,0,0,.9)" stroke-width="5" fill="none"><path d="M1100.8 590.4 L1100.8 500.4"/><path d="M1100.8 540.4 L1060.8 505.4"/><path d="M1100.8 528.4 L1138.8 490.4"/><path d="M1060.8 505.4 L1045.8 485.4"/><path d="M1138.8 490.4 L1152.8 472.4"/></g><path d="M696.32 311.58 q6.220000000000001 -6.220000000000001 12.440000000000001 0 q6.220000000000001 -6.220000000000001 12.440000000000001 0" stroke="rgba(0,0,0,.9)" stroke-width="2" fill="none"/><path d="M970.24 318.13199999999995 q4.115 -4.115 8.23 0 q4.115 -4.115 8.23 0" stroke="rgba(0,0,0,.9)" stroke-width="2" fill="none"/><path d="M424.96000000000004 359.964 q7.625 -7.625 15.25 0 q7.625 -7.625 15.25 0" stroke="rgba(0,0,0,.9)" stroke-width="2" fill="none"/><path d="M478.72 205.99200000000002 q4.6850000000000005 -4.6850000000000005 9.370000000000001 0 q4.6850000000000005 -4.6850000000000005 9.370000000000001 0" stroke="rgba(0,0,0,.9)" stroke-width="2" fill="none"/><path d="M1272.32 215.31599999999997 q5.625 -5.625 11.25 0 q5.625 -5.625 11.25 0" stroke="rgba(0,0,0,.9)" stroke-width="2" fill="none"/><path d="M515.84 341.568 q6.775 -6.775 13.55 0 q6.775 -6.775 13.55 0" stroke="rgba(0,0,0,.9)" stroke-width="2" fill="none"/><ellipse cx="793.6" cy="532.8" rx="576" ry="28.8" fill="rgba(180,180,200,.10)"/><ellipse cx="797.44" cy="568.8000000000001" rx="576" ry="28.8" fill="rgba(180,180,200,.10)"/><ellipse cx="128" cy="604.8" rx="576" ry="28.8" fill="rgba(180,180,200,.10)"/><ellipse cx="284.16" cy="640.8" rx="576" ry="28.8" fill="rgba(180,180,200,.10)"/></g><rect width="1280" height="720" fill="url(#vig)"/><rect width="1280" height="720" filter="url(#grain)" opacity=".45"/></svg>