<svg xmlns="http://www.w3.org/2000/svg" width="1280" height="720" viewBox="0 0 1280 720"><defs><linearGradient id="sky" x1="0" y1="0" x2="0" y2="1"><stop offset="0" stop-color="#5c2a0a"/><stop offset="0.55" stop-color="#f2994a"/><stop offset="1" stop-color="#5c2a0a"/></linearGradient><radialGradient id="glow"><stop offset="0" stop-color="rgba(255,255,255,.55)"/><stop offset="1" stop-color="rgba(255,255,255,0)"/></radialGradient><linearGradient id="sea" x1="0" y1="0" x2="0" y2="1"><stop offset="0" stop-color="#f2994a"/><stop offset="1" stop-color="#5c2a0a"/></linearGradient><radialGradient id="planet"><stop offset="0" stop-color="#f2994a"/><stop offset="1" stop-color="#5c2a0a"/></radialGradient><linearGradient id="track" x1="0" y1="0" x2="0" y2="1"><stop offset="0" stop-color="#8c2b23"/><stop offset="1" stop-color="#4a1410"/></linearGradient><linearGradient id="bw" x1="0" y1="0" x2="0" y2="1"><stop offset="0" stop-color="#d8d8d8"/><stop offset="1" stop-color="#2a2a2a"/></linearGradient><linearGradient id="vig" x1="0" y1="0" x2="0" y2="1"><stop offset="0" stop-color="rgba(0,0,0,.45)"/><stop offset="0.35" stop-color="rgba(0,0,0,0)"/><stop offset="0.72" stop-color="rgba(0,0,0,.55)"/><stop offset="1" stop-color="rgba(0,0,0,.92)"/></linearGradient><filter id="grain"><feTurbulence type="fractalNoise" baseFrequency="0.9" numOctaves="2" stitchTiles="stitch"/><feColorMatrix type="saturate" values="0"/><feComponentTransfer><feFuncA type="linear" slope="0.06"/></feComponentTransfer></filter></defs><g><rect width="1280" height="720" fill="url(#sky)"/><circle cx="998.4000000000001" cy="115.2" r="89.60000000000001" fill="rgba(255,245,200,.95)"/><g fill="rgba(255,255,255,.85)"><ellipse cx="403.2" cy="242.06400000000005" rx="26" ry="13"/><ellipse cx="421.2" cy="245.06400000000005" rx="18" ry="10"/><ellipse cx="385.2" cy="246.06400000000005" rx="16" ry="9"/></g><g fill="rgba(255,255,255,.85)"><ellipse cx="253.44" cy="160.704" rx="26" ry="13"/><ellipse cx="271.44" cy="163.704" rx="18" ry="10"/><ellipse cx="235.44" cy="164.704" rx="16" ry="9"/></g><g fill="rgba(255,255,255,.85)"><ellipse cx="189.44" cy="206.78400000000002" rx="26" ry="13"/><ellipse cx="207.44" cy="209.78400000000002" rx="18" ry="10"/><ellipse cx="171.44" cy="210.78400000000002" rx="16" ry="9"/></g><g fill="rgba(255,255,255,.85)"><ellipse cx="759.04" cy="156.24" rx="26" ry="13"/><ellipse cx="777.04" cy="159.24" rx="18" ry="10"/><ellipse cx="741.04" cy="160.24" rx="16" ry="9"/></g><path d="M0 720 L0 475.20000000000005 q256 -86.39999999999999 537.6 0 t537.6 0 t537.6 0 L1280 720 Z" fill="rgba(60,140,60,.85)"/><path d="M0 720 L0 576 q384 -72 768 0 t768 0 L1280 720 Z" fill="rgba(30,100,40,.95)"/><rect x="374.6512" y="518.9776" width="6" height="16.472" fill="rgba(60,35,15,.9)"/><circle cx="377.6512" cy="512.9776" r="13.177600000000002" fill="rgba(40,120,50,.95)"/><rect x="946.6575999999999" y="524.6512" width="6" height="22.592" fill="rgba(60,35,15,.9)"/><circle cx="949.6575999999999" cy="518.6512" r="18.0736" fill="rgba(40,120,50,.95)"/><rect x="1053.1024" y="533.884" width="6" height="14.972" fill="rgba(60,35,15,.9)"/><circle cx="1056.1024" cy="527.884" r="11.9776" fill="rgba(40,120,50,.95)"/><rect x="187.56640000000002" y="541.2856" width="6" height="18.86" fill="rgba(60,35,15,.9)"/><circle cx="190.56640000000002" cy="535.2856" r="15.088000000000001" fill="rgba(40,120,50,.95)"/><rect x="1088.584" y="544.1392000000001" width="6" height="21.752000000000002" fill="rgba(60,35,15,.9)"/><circle cx="1091.584" cy="538.1392000000001" r="17.401600000000002" fill="rgba(40,120,50,.95)"/><g fill="rgba(0,0,0,.85)" transform="translate(640 576) scale(4.266666666666667)"><ellipse cx="0" cy="-26" rx="14" ry="13"/><ellipse cx="-14" cy="-32" rx="5" ry="9"/><ellipse cx="14" cy="-32" rx="5" ry="9"/><ellipse cx="0" cy="0" rx="17" ry="19"/><circle cx="-5" cy="-28" r="2" fill="#fff"/><circle cx="5" cy="-28" r="2" fill="#fff"/></g><circle cx="403.2" cy="133.2" r="2.106" fill="rgba(255,255,180,.85)"/><circle cx="1022.7" cy="524.2" r="2.806" fill="rgba(255,255,180,.85)"/><circle cx="597.8" cy="15.8" r="1.186" fill="rgba(255,255,180,.85)"/><circle cx="1141.8" cy="381.6" r="1.116" fill="rgba(255,255,180,.85)"/><circle cx="825.6" cy="299.5" r="1.31" fill="rgba(255,255,180,.85)"/><circle cx="1228.8" cy="442.1" r="2.942" fill="rgba(255,255,180,.85)"/><circle cx="526.1" cy="305.3" r="2.784" fill="rgba(255,255,180,.85)"/><circle cx="652.8" cy="439.9" r="2.544" fill="rgba(255,255,180,.85)"/><circle cx="833.3" cy="627.8" r="1.17" fill="rgba(255,255,180,.85)"/><circle cx="1255.7" cy="714.2" r="2.5780000000000003" fill="rgba(255,255,180,.85)"/><circle cx="57.6" cy="44.6" r="1.29" fill="rgba(255,255,180,.85)"/><circle cx="298.2" cy="45.4" r="1.366" fill="rgba(255,255,180,.85)"/><circle cx="1025.3" cy="428.4" r="2.0860000000000003" fill="rgba(255,255,180,.85)"/><circle cx="161.3" cy="349.2" r="1.9260000000000002" fill="rgba(255,255,180,.85)"/><circle cx="871.7" cy="621.4" r="1.662" fill="rgba(255,255,180,.85)"/><circle cx="953.6" cy="219.6" r="2.104" fill="rgba(255,255,180,.85)"/></g><rect width="1280" height="720" fill="url(#vig)"/><rect width="1280" height="720" filter="url(#grain)" opacity=".45"/></svg>