<svg xmlns="http://www.w3.org/2000/svg" width="1280" height="720" viewBox="0 0 1280 720"><defs><linearGradient id="sky" x1="0" y1="0" x2="0" y2="1"><stop offset="0" stop-color="#0f1a1a"/><stop offset="0.55" stop-color="#3e5151"/><stop offset="1" stop-color="#0f1a1a"/></linearGradient><radialGradient id="glow"><stop offset="0" stop-color="rgba(255,255,255,.55)"/><stop offset="1" stop-color="rgba(255,255,255,0)"/></radialGradient><linearGradient id="sea" x1="0" y1="0" x2="0" y2="1"><stop offset="0" stop-color="#3e5151"/><stop offset="1" stop-color="#0f1a1a"/></linearGradient><radialGradient id="planet"><stop offset="0" stop-color="#3e5151"/><stop offset="1" stop-color="#0f1a1a"/></radialGradient><linearGradient id="track" x1="0" y1="0" x2="0" y2="1"><stop offset="0" stop-color="#8c2b23"/><stop offset="1" stop-color="#4a1410"/></linearGradient><linearGradient id="bw" x1="0" y1="0" x2="0" y2="1"><stop offset="0" stop-color="#d8d8d8"/><stop offset="1" stop-color="#2a2a2a"/></linearGradient><linearGradient id="vig" x1="0" y1="0" x2="0" y2="1"><stop offset="0" stop-color="rgba(0,0,0,.45)"/><stop offset="0.35" stop-color="rgba(0,0,0,0)"/><stop offset="0.72" stop-color="rgba(0,0,0,.55)"/><stop offset="1" stop-color="rgba(0,0,0,.92)"/></linearGradient><filter id="grain"><feTurbulence type="fractalNoise" baseFrequency="0.9" numOctaves="2" stitchTiles="stitch"/><feColorMatrix type="saturate" values="0"/><feComponentTransfer><feFuncA type="linear" slope="0.06"/></feComponentTransfer></filter></defs><g><rect width="1280" height="720" fill="url(#bw)"/><polygon points="640,0 435.20000000000005,720 844.8000000000001,720" fill="rgba(255,255,255,.13)"/><g fill="rgba(0,0,0,.88)" transform="translate(640 475.20000000000005) scale(4.266666666666667)"><ellipse cx="0" cy="-78" rx="13" ry="15"/><path d="M-26 -78 h52 l-6 -14 h-40z"/><path d="M-22 -62 q22 -10 44 0 l12 62 h-18 l-5 -24 -9 24 h-14 l-7 -22 -7 22 h-14 l-5 -24 -5 24 h-18z"/><path d="M18 -46 l34 -10 -4 10 -32 12z"/></g><rect x="0" y="619.2" width="1280" height="100.80000000000001" fill="rgba(0,0,0,.75)"/><rect x="6" y="626.4" width="12" height="8" rx="2" fill="rgba(255,255,255,.35)"/><rect x="32" y="626.4" width="12" height="8" rx="2" fill="rgba(255,255,255,.35)"/><rect x="58" y="626.4" width="12" height="8" rx="2" fill="rgba(255,255,255,.35)"/><rect x="84" y="626.4" width="12" height="8" rx="2" fill="rgba(255,255,255,.35)"/><rect x="110" y="626.4" width="12" height="8" rx="2" fill="rgba(255,255,255,.35)"/><rect x="136" y="626.4" width="12" height="8" rx="2" fill="rgba(255,255,255,.35)"/><rect x="162" y="626.4" width="12" height="8" rx="2" fill="rgba(255,255,255,.35)"/><rect x="188" y="626.4" width="12" height="8" rx="2" fill="rgba(255,255,255,.35)"/><rect x="214" y="626.4" width="12" height="8" rx="2" fill="rgba(255,255,255,.35)"/><rect x="240" y="626.4" width="12" height="8" rx="2" fill="rgba(255,255,255,.35)"/><rect x="266" y="626.4" width="12" height="8" rx="2" fill="rgba(255,255,255,.35)"/><rect x="292" y="626.4" width="12" height="8" rx="2" fill="rgba(255,255,255,.35)"/><rect x="318" y="626.4" width="12" height="8" rx="2" fill="rgba(255,255,255,.35)"/><rect x="344" y="626.4" width="12" height="8" rx="2" fill="rgba(255,255,255,.35)"/><rect x="370" y="626.4" width="12" height="8" rx="2" fill="rgba(255,255,255,.35)"/><rect x="396" y="626.4" width="12" height="8" rx="2" fill="rgba(255,255,255,.35)"/><rect x="422" y="626.4" width="12" height="8" rx="2" fill="rgba(255,255,255,.35)"/><rect x="448" y="626.4" width="12" height="8" rx="2" fill="rgba(255,255,255,.35)"/><rect x="474" y="626.4" width="12" height="8" rx="2" fill="rgba(255,255,255,.35)"/><rect x="500" y="626.4" width="12" height="8" rx="2" fill="rgba(255,255,255,.35)"/><rect x="526" y="626.4" width="12" height="8" rx="2" fill="rgba(255,255,255,.35)"/><rect x="552" y="626.4" width="12" height="8" rx="2" fill="rgba(255,255,255,.35)"/><rect x="578" y="626.4" width="12" height="8" rx="2" fill="rgba(255,255,255,.35)"/><rect x="604" y="626.4" width="12" height="8" rx="2" fill="rgba(255,255,255,.35)"/><rect x="630" y="626.4" width="12" height="8" rx="2" fill="rgba(255,255,255,.35)"/><rect x="656" y="626.4" width="12" height="8" rx="2" fill="rgba(255,255,255,.35)"/><rect x="682" y="626.4" width="12" height="8" rx="2" fill="rgba(255,255,255,.35)"/><rect x="708" y="626.4" width="12" height="8" rx="2" fill="rgba(255,255,255,.35)"/><rect x="734" y="626.4" width="12" height="8" rx="2" fill="rgba(255,255,255,.35)"/><rect x="760" y="626.4" width="12" height="8" rx="2" fill="rgba(255,255,255,.35)"/><rect x="786" y="626.4" width="12" height="8" rx="2" fill="rgba(255,255,255,.35)"/><rect x="812" y="626.4" width="12" height="8" rx="2" fill="rgba(255,255,255,.35)"/><rect x="838" y="626.4" width="12" height="8" rx="2" fill="rgba(255,255,255,.35)"/><rect x="864" y="626.4" width="12" height="8" rx="2" fill="rgba(255,255,255,.35)"/><rect x="890" y="626.4" width="12" height="8" rx="2" fill="rgba(255,255,255,.35)"/><rect x="916" y="626.4" width="12" height="8" rx="2" fill="rgba(255,255,255,.35)"/><rect x="942" y="626.4" width="12" height="8" rx="2" fill="rgba(255,255,255,.35)"/><rect x="968" y="626.4" width="12" height="8" rx="2" fill="rgba(255,255,255,.35)"/><rect x="994" y="626.4" width="12" height="8" rx="2" fill="rgba(255,255,255,.35)"/><rect x="1020" y="626.4" width="12" height="8" rx="2" fill="rgba(255,255,255,.35)"/><rect x="1046" y="626.4" width="12" height="8" rx="2" fill="rgba(255,255,255,.35)"/><rect x="1072" y="626.4" width="12" height="8" rx="2" fill="rgba(255,255,255,.35)"/><rect x="1098" y="626.4" width="12" height="8" rx="2" fill="rgba(255,255,255,.35)"/><rect x="1124" y="626.4" width="12" height="8" rx="2" fill="rgba(255,255,255,.35)"/><rect x="1150" y="626.4" width="12" height="8" rx="2" fill="rgba(255,255,255,.35)"/><rect x="1176" y="626.4" width="12" height="8" rx="2" fill="rgba(255,255,255,.35)"/><rect x="1202" y="626.4" width="12" height="8" rx="2" fill="rgba(255,255,255,.35)"/><rect x="1228" y="626.4" width="12" height="8" rx="2" fill="rgba(255,255,255,.35)"/><rect x="1254" y="626.4" width="12" height="8" rx="2" fill="rgba(255,255,255,.35)"/></g><rect width="1280" height="720" fill="url(#vig)"/><rect width="1280" height="720" filter="url(#grain)" opacity=".45"/></svg>